<svg width="18" height="20" viewBox="0 0 18 20" fill="none" xmlns="http://www.w3.org/2000/svg">
<g clip-path="url(#clip0_146_148)">
<path d="M0.793898 10.4544H14.7552L12.141 13.3233C11.8309 13.6634 11.8309 14.2151 12.141 14.5553C12.296 14.7254 12.4992 14.8105 12.7024 14.8105C12.9056 14.8105 13.1087 14.7254 13.2637 14.5553L17.2332 10.1992C17.5432 9.85904 17.5432 9.30739 17.2332 8.96715L13.2637 4.61109C12.9537 4.27091 12.451 4.27091 12.141 4.61109C11.8309 4.95127 11.8309 5.50292 12.141 5.84316L14.7552 8.712H0.793898C0.355455 8.712 0 9.10207 0 9.58321C0 10.0644 0.355455 10.4544 0.793898 10.4544Z" fill="white"/>
</g>
<defs>
<clipPath id="clip0_146_148">
<rect width="17.4658" height="19.1667" rx="8.73288" fill="white"/>
</clipPath>
</defs>
</svg>
