<svg width="30" height="30" viewBox="0 0 30 30" fill="none" xmlns="http://www.w3.org/2000/svg">
<path d="M0.244144 14.4078L8.80742 5.84449C9.13394 5.51798 9.65759 5.51798 9.98411 5.84449C10.3106 6.17101 10.3106 6.69466 9.98411 7.02117L2.83777 14.1675H29.1683C29.6304 14.1675 30 14.5371 30 14.9992C30 15.4612 29.6304 15.8309 29.1683 15.8309H2.83777L9.98411 22.9772C10.3106 23.3037 10.3106 23.8274 9.98411 24.1539C9.82393 24.3141 9.60831 24.4003 9.39885 24.4003C9.18938 24.4003 8.97376 24.3202 8.81359 24.1539L0.250305 15.5906C-0.0823689 15.2579 -0.0823689 14.7281 0.244144 14.4078Z" fill="black"/>
</svg>
