<svg width="60" height="60" viewBox="0 0 60 60" fill="none" xmlns="http://www.w3.org/2000/svg">
<path d="M22.4999 56.3241V52.5H17.0361L22.4999 56.3241Z" fill="#0C7283"/>
<path d="M23.269 50.625H36.7315L37.1065 48.75H22.894L23.269 50.625Z" fill="#0C7283"/>
<path d="M45.0003 45H39.769L38.644 50.625H45.0003V45Z" fill="#0C7283"/>
<path d="M15 45V50.625H21.3563L20.2312 45H15Z" fill="#0C7283"/>
<path d="M13.1252 49.6875H5.70117L8.70023 53.4375L5.70117 57.1875H20.464L13.1252 52.0509V49.6875Z" fill="#0C7283"/>
<path d="M46.8749 49.6875V52.0509L39.5361 57.1875H54.2989L51.2999 53.4375L54.2989 49.6875H46.8749Z" fill="#0C7283"/>
<path d="M37.5 52.5V56.3241L42.9637 52.5H37.5Z" fill="#0C7283"/>
<path d="M33.3171 45.1951L30.0002 39.3901L26.6833 45.1951L21.8608 43.5873L22.519 46.8751H37.4815L38.1387 43.5873L33.3171 45.1951ZM30.9377 45.0001H29.0627V43.1251H30.9377V45.0001Z" fill="#0C7283"/>
<path d="M11.2341 39.9356L11.3728 39.8559C12.2437 41.0203 13.2178 42.1172 14.3016 43.125H17.2003C15.5934 41.8847 14.1919 40.4597 12.9994 38.8959C15.1228 37.5619 15.8381 34.785 14.5734 32.595L14.1047 31.7831L13.2928 32.2519C11.9644 33.0188 11.1694 34.3416 10.9988 35.7562C10.6631 35.1169 10.3575 34.4634 10.0856 33.7941C12.4884 33.0591 13.9022 30.5578 13.2459 28.1109L13.0031 27.2053L12.0975 27.4481C10.6172 27.8447 9.50812 28.9144 8.97656 30.2344C8.82187 29.535 8.69906 28.8253 8.61094 28.1072C11.1178 28.0134 13.125 25.9669 13.125 23.4375V22.5H12.1875C10.6613 22.5 9.31781 23.2406 8.46187 24.3703C8.49188 23.6531 8.55938 22.9416 8.65688 22.2347C11.0991 22.7878 13.5628 21.3309 14.2162 18.8906L14.4591 17.985L13.5534 17.7422C12.0806 17.3475 10.5938 17.715 9.47531 18.5822C9.68906 17.9006 9.93844 17.2322 10.215 16.575C12.4303 17.7384 15.1847 16.9697 16.4475 14.7825L16.9163 13.9706L16.1044 13.5019C14.7825 12.7388 13.2488 12.7087 11.9428 13.2591C12.3244 12.6562 12.7387 12.0722 13.1775 11.5059C15.0159 13.2075 17.8791 13.1784 19.6669 11.3916L20.3297 10.7288L19.6669 10.0659C18.5569 8.95594 17.0297 8.53031 15.5906 8.76563L15.2869 8.4375H15.9375C19.5619 8.4375 22.5 5.49937 22.5 1.875H21.5625C18.0375 1.875 15.1697 4.65656 15.015 8.14406L14.3625 7.44094C14.3559 7.44656 14.3503 7.45312 14.3447 7.45875C14.5612 6.03562 14.1356 4.53281 13.0397 3.43687L12.3769 2.77406L11.7141 3.43687C9.88313 5.26781 9.88313 8.235 11.7141 10.0659L11.8322 10.1841C11.2772 10.8862 10.7644 11.6184 10.2919 12.3741C10.1353 10.9388 9.33469 9.5925 7.98844 8.81531L7.17656 8.34656L6.70781 9.15844C5.41313 11.4 6.18187 14.2669 8.42344 15.5616L8.5725 15.6478C8.21812 16.4681 7.91156 17.3081 7.64813 18.1631C7.12687 16.815 6.00281 15.72 4.5 15.3178L3.59438 15.075L3.35156 15.9806C2.68125 18.4809 4.16531 21.0516 6.66656 21.7219L6.83062 21.7659C6.70031 22.6462 6.61969 23.535 6.58687 24.4303C5.73281 23.265 4.36594 22.5 2.8125 22.5H1.875V23.4375C1.875 26.0259 3.97406 28.125 6.5625 28.125H6.72656C6.82781 29.0138 6.97781 29.8894 7.17281 30.7519C6.04875 29.8556 4.5375 29.475 3.04313 29.8753L2.1375 30.1181L2.38031 31.0237C3.05062 33.5241 5.62031 35.0081 8.12156 34.3387L8.26687 34.2994C8.59312 35.1253 8.96531 35.9306 9.38062 36.7144C8.06531 36.1444 6.51094 36.1678 5.17406 36.9403L4.36219 37.4091L4.83094 38.2209C6.12563 40.4616 8.9925 41.2303 11.2341 39.9356Z" fill="#0C7283"/>
<path d="M53.4375 28.125C56.0259 28.125 58.125 26.0259 58.125 23.4375V22.5H57.1875C55.6341 22.5 54.2672 23.265 53.4141 24.4284C53.3812 23.5331 53.3016 22.6444 53.1703 21.7641L53.3344 21.72C55.8347 21.0497 57.3187 18.48 56.6494 15.9788L56.4066 15.0731L55.5009 15.3159C53.9981 15.7191 52.8741 16.8131 52.3528 18.1612C52.0894 17.3062 51.7828 16.4662 51.4284 15.6459L51.5775 15.5597C53.8191 14.265 54.5878 11.3981 53.2931 9.15656L52.8244 8.34469L52.0125 8.81344C50.6662 9.59062 49.8647 10.9369 49.7091 12.3722C49.2366 11.6166 48.7238 10.8844 48.1688 10.1822L48.2869 10.0641C50.1178 8.23312 50.1178 5.26594 48.2869 3.435L47.6241 2.77219L46.9612 3.435C45.8653 4.53094 45.4397 6.03375 45.6563 7.45687C45.6497 7.45125 45.6441 7.44469 45.6384 7.43906L44.9859 8.14219C44.8303 4.65656 41.9625 1.875 38.4375 1.875H37.5C37.5 5.49937 40.4381 8.4375 44.0625 8.4375H44.7131L44.4084 8.76563C42.9694 8.52938 41.4422 8.95594 40.3322 10.0659L39.6694 10.7288L40.3322 11.3916C42.1191 13.1784 44.9822 13.2075 46.8216 11.5059C47.2603 12.0722 47.6747 12.6562 48.0562 13.2591C46.7503 12.7087 45.2166 12.7378 43.8947 13.5019L43.0828 13.9706L43.5516 14.7825C44.8144 16.9697 47.5688 17.7384 49.7841 16.575C50.0616 17.2322 50.31 17.9016 50.5237 18.5822C49.4053 17.715 47.9184 17.3484 46.4456 17.7422L45.54 17.985L45.7828 18.8906C46.4362 21.3309 48.9 22.7878 51.3422 22.2347C51.4406 22.9416 51.5072 23.6531 51.5372 24.3703C50.6822 23.2406 49.3387 22.5 47.8125 22.5H46.875V23.4375C46.875 25.9669 48.8822 28.0134 51.3881 28.1072C51.3 28.8253 51.1772 29.535 51.0225 30.2344C50.4909 28.9144 49.3819 27.8447 47.9016 27.4481L46.9959 27.2053L46.7531 28.1109C46.0978 30.5569 47.5106 33.0581 49.9134 33.7941C49.6416 34.4634 49.3359 35.1169 49.0003 35.7562C48.8297 34.3416 48.0347 33.0188 46.7062 32.2519L45.8944 31.7831L45.4256 32.595C44.1609 34.785 44.8753 37.5619 46.9997 38.8959C45.8081 40.4597 44.4056 41.8847 42.7988 43.125H45.6975C46.7812 42.1172 47.7563 41.0194 48.6263 39.8559L48.765 39.9356C51.0066 41.2303 53.8734 40.4616 55.1681 38.22L55.6369 37.4081L54.825 36.9394C53.4881 36.1678 51.9338 36.1434 50.6184 36.7134C51.0337 35.9297 51.4059 35.1244 51.7322 34.2984L51.8775 34.3378C54.3778 35.0081 56.9484 33.5241 57.6187 31.0228L57.8616 30.1172L56.9559 29.8744C55.4616 29.4741 53.9503 29.8547 52.8263 30.7509C53.0212 29.8894 53.1713 29.0128 53.2725 28.1241H53.4375V28.125Z" fill="#0C7283"/>
</svg>
