<svg width="15" height="15" viewBox="0 0 15 15" fill="none" xmlns="http://www.w3.org/2000/svg">
<g clip-path="url(#clip0_115_66)">
<path d="M6.18164 7.03121C5.93894 7.03121 5.74219 7.22797 5.74219 7.47066V14.5605C5.74219 14.8032 5.93894 14.9999 6.18164 14.9999H9.69724C9.93994 14.9999 10.1367 14.8032 10.1367 14.5605V7.47066C10.1367 7.22797 9.93994 7.03121 9.69724 7.03121H9.25779C9.25779 5.66633 9.25779 2.11789 9.25779 0.439451C9.25779 0.196757 9.06103 0 8.81834 0H7.06054C6.81785 0 6.62109 0.196757 6.62109 0.439451V7.03121H6.18164ZM9.25779 14.121H6.62109V7.91011H9.25779V14.121ZM7.49999 3.25817L8.37889 4.13708V5.53084L7.49999 4.65194V3.25817ZM8.37889 0.878901V2.89413L7.49999 2.01523V0.878901H8.37889ZM7.49999 5.89488L8.37889 6.77378V7.03121H7.49999V5.89488Z" fill="#0C7283"/>
<path d="M3.04771 7.03126H2.66609C2.4234 7.03126 2.22664 7.22801 2.22664 7.47071V14.5605C2.22664 14.8032 2.4234 15 2.66609 15H4.42389C4.66659 15 4.86334 14.8032 4.86334 14.5605V7.47071C4.86334 7.22801 4.66659 7.03126 4.42389 7.03126H4.04227C4.27627 5.41001 4.83788 3.82629 5.67961 2.42341C5.8045 2.21529 5.737 1.94535 5.52888 1.82049C5.32067 1.69557 5.05081 1.76312 4.92595 1.97122C4.72665 2.30341 4.54234 2.64525 4.37289 2.99476C4.50147 2.17047 4.66082 1.35124 4.85165 0.540192C4.90723 0.303943 4.76078 0.0673722 4.52453 0.0117671C4.28828 -0.0437795 4.05168 0.102645 3.9961 0.338894C3.81994 1.08748 3.66953 1.84261 3.54499 2.60245C3.42045 1.84261 3.27001 1.08751 3.09388 0.338894C3.03831 0.102645 2.80171 -0.0437795 2.56546 0.0117671C2.32918 0.0673429 2.18272 0.303914 2.2383 0.540162C2.42914 1.35121 2.58848 2.17047 2.71707 2.99473C2.54761 2.64525 2.36331 2.30338 2.164 1.97122C2.03914 1.76312 1.7692 1.6956 1.56108 1.82049C1.35295 1.94535 1.28548 2.21529 1.41035 2.42341C2.2521 3.82629 2.81372 5.41001 3.04771 7.03126ZM3.98444 14.1211H3.10554V7.91016H3.98444V14.1211Z" fill="#0C7283"/>
<path d="M12.334 0C12.0913 0 11.8945 0.196757 11.8945 0.439451V7.03121H11.4551C11.2124 7.03121 11.0156 7.22797 11.0156 7.47066V14.5605C11.0156 14.8032 11.2124 14.9999 11.4551 14.9999H13.2129C13.4556 14.9999 13.6523 14.8032 13.6523 14.5605V7.47066C13.6523 7.22797 13.4556 7.03121 13.2129 7.03121H12.7734V0.439451C12.7734 0.196757 12.5767 0 12.334 0ZM12.7734 14.121H11.8945V7.91011H12.7734V14.121Z" fill="#0C7283"/>
</g>
<defs>
<clipPath id="clip0_115_66">
<rect width="15" height="15" fill="white"/>
</clipPath>
</defs>
</svg>
