<svg width="15" height="15" viewBox="0 0 15 15" fill="none" xmlns="http://www.w3.org/2000/svg">
<path d="M6.5918 8.78906H5.34085C5.43864 8.54218 5.64064 8.43199 5.93288 8.27259C6.39642 8.0197 7.03125 7.67338 7.03125 6.5918C7.03125 5.86485 6.43983 5.27344 5.71289 5.27344C4.98595 5.27344 4.39453 5.86485 4.39453 6.5918C4.39453 6.83449 4.59129 7.03125 4.83398 7.03125C5.07668 7.03125 5.27344 6.83449 5.27344 6.5918C5.27344 6.34948 5.47058 6.15234 5.71289 6.15234C5.95521 6.15234 6.1582 6.34948 6.1582 6.5918C6.1582 7.15166 5.92488 7.27576 5.51197 7.501C5.04038 7.75825 4.39453 8.11058 4.39453 9.22852C4.39453 9.47121 4.59129 9.66797 4.83398 9.66797H6.5918C6.83449 9.66797 7.03125 9.47121 7.03125 9.22852C7.03125 8.98582 6.83449 8.78906 6.5918 8.78906Z" fill="#0C7283"/>
<path d="M11.0449 7.03125H10.6055V5.71289C10.6055 5.4702 10.4087 5.27344 10.166 5.27344C9.92332 5.27344 9.72656 5.4702 9.72656 5.71289V7.03125H8.84766V5.71289C8.84766 5.4702 8.6509 5.27344 8.4082 5.27344C8.16551 5.27344 7.96875 5.4702 7.96875 5.71289V7.4707C7.96875 7.7134 8.16551 7.91016 8.4082 7.91016H9.72656V9.22852C9.72656 9.47121 9.92332 9.66797 10.166 9.66797C10.4087 9.66797 10.6055 9.47121 10.6055 9.22852V7.91016H11.0449C11.2876 7.91016 11.4844 7.7134 11.4844 7.4707C11.4844 7.22801 11.2876 7.03125 11.0449 7.03125Z" fill="#0C7283"/>
<path d="M14.5605 7.08984C14.3179 7.08984 14.127 7.2866 14.127 7.5293C14.127 11.164 11.1377 14.127 7.4707 14.127C5.39001 14.127 3.43374 13.1216 2.19729 11.4785C3.12472 11.4785 3.19749 11.4894 3.31427 11.4139C4.42518 12.6072 5.91516 13.2422 7.4707 13.2422C10.62 13.2422 13.2422 10.6303 13.2422 7.4707C13.2422 6.36583 12.9223 5.30681 12.3259 4.39453H13.6816C13.9243 4.39453 14.1211 4.19777 14.1211 3.95508V2.19727C14.1211 1.95457 13.9243 1.75781 13.6816 1.75781C13.4389 1.75781 13.2422 1.95457 13.2422 2.19727V2.66016C11.8294 0.994658 9.71716 0 7.4707 0C3.34336 0 0 3.33894 0 7.4707C0 7.7134 0.196758 7.91016 0.439453 7.91016C0.682148 7.91016 0.873047 7.7134 0.873047 7.4707C0.873047 3.83599 3.83599 0.873047 7.4707 0.873047C9.58348 0.873047 11.561 1.87837 12.8019 3.52148C11.851 3.52148 11.8273 3.49509 11.6868 3.58544C10.5613 2.3935 9.0477 1.75781 7.4707 1.75781C4.32062 1.75781 1.75781 4.32062 1.75781 7.4707C1.75781 8.59611 2.08119 9.67647 2.68336 10.6055H1.31836C1.07566 10.6055 0.878906 10.8022 0.878906 11.0449V12.8027C0.878906 13.0454 1.07566 13.2422 1.31836 13.2422C1.56105 13.2422 1.75781 13.0454 1.75781 12.8027V12.3433C3.18053 14.03 5.26251 15 7.4707 15C11.5693 15 15 11.6889 15 7.5293C15 7.2866 14.8032 7.08984 14.5605 7.08984ZM2.63086 7.4707C2.63086 4.80524 4.80524 2.63086 7.4707 2.63086C10.1685 2.63086 12.3691 4.80524 12.3691 7.4707C12.3691 10.1227 10.1227 12.3691 7.4707 12.3691C4.80524 12.3691 2.63086 10.1685 2.63086 7.4707Z" fill="#0C7283"/>
</svg>
