<svg width="50" height="50" viewBox="0 0 50 50" fill="none" xmlns="http://www.w3.org/2000/svg">
<g clip-path="url(#clip0_132_813)">
<path d="M26.5689 50H23.431C20.893 50 18.828 47.9352 18.828 45.3972V44.3355C17.749 43.9908 16.7007 43.5557 15.6936 43.0345L14.9412 43.7868C13.119 45.6112 10.2002 45.5577 8.43096 43.7861L6.21309 41.5684C4.44072 39.798 4.38975 36.8801 6.21367 35.0581L6.96543 34.3063C6.44424 33.2992 6.00918 32.2511 5.66436 31.1719H4.60283C2.06494 31.1719 0 29.107 0 26.569V23.431C0 20.893 2.06494 18.8281 4.60293 18.8281H5.66445C6.00928 17.749 6.44434 16.7008 6.96553 15.6937L6.21318 14.9414C4.39033 13.1205 4.44063 10.2023 6.21377 8.43115L8.43184 6.21318C10.2052 4.4374 13.1233 4.39307 14.942 6.21377L15.6937 6.96543C16.7008 6.44434 17.7491 6.00918 18.8281 5.66436V4.60283C18.8281 2.06484 20.893 0 23.4311 0H26.569C29.107 0 31.1719 2.06484 31.1719 4.60283V5.66445C32.2509 6.00918 33.2992 6.44434 34.3063 6.96553L35.0587 6.21318C36.8809 4.38877 39.7997 4.44229 41.5689 6.21387L43.7868 8.43164C45.5592 10.2021 45.6102 13.1199 43.7862 14.9419L43.0345 15.6937C43.5557 16.7008 43.9907 17.7489 44.3355 18.8281H45.3971C47.9351 18.8281 50 20.893 50 23.431V26.569C50 29.107 47.9351 31.1719 45.3971 31.1719H44.3355C43.9907 32.251 43.5557 33.2992 43.0345 34.3063L43.7868 35.0587C45.6097 36.8796 45.5594 39.7978 43.7862 41.5689L41.5682 43.7869C39.7948 45.5627 36.8767 45.607 35.058 43.7863L34.3063 43.0347C33.2992 43.5558 32.2509 43.9909 31.1719 44.3357V45.3974C31.1719 47.9352 29.107 50 26.5689 50ZM16.1833 39.958C17.5824 40.7854 19.0883 41.4105 20.659 41.8159C21.3059 41.9828 21.7578 42.5662 21.7578 43.2343V45.3972C21.7578 46.3197 22.5085 47.0703 23.4311 47.0703H26.569C27.4916 47.0703 28.2423 46.3197 28.2423 45.3972V43.2343C28.2423 42.5662 28.6942 41.9828 29.3411 41.8159C30.9118 41.4105 32.4177 40.7854 33.8168 39.958C34.3925 39.6176 35.1254 39.7102 35.5983 40.1831L37.1304 41.7152C37.7909 42.3766 38.8517 42.3612 39.496 41.7159L41.7154 39.4966C42.3582 38.8546 42.3797 37.7937 41.716 37.1309L40.1833 35.5981C39.7104 35.1253 39.6179 34.3923 39.9582 33.8167C40.7856 32.4177 41.4106 30.9118 41.816 29.341C41.983 28.6941 42.5664 28.2423 43.2344 28.2423H45.3972C46.3197 28.2423 47.0704 27.4917 47.0704 26.5691V23.4311C47.0704 22.5085 46.3197 21.7579 45.3972 21.7579H43.2344C42.5663 21.7579 41.983 21.306 41.816 20.6592C41.4106 19.0884 40.7855 17.5825 39.9582 16.1835C39.6179 15.6079 39.7104 14.8749 40.1833 14.4021L41.7154 12.8699C42.3777 12.2084 42.3605 11.1479 41.716 10.5042L39.4968 8.28496C38.8535 7.64082 37.7926 7.62197 37.1311 8.28438L35.5984 9.81709C35.1256 10.29 34.3924 10.3826 33.8169 10.0422C32.4178 9.21475 30.9119 8.58965 29.3412 8.18428C28.6943 8.01738 28.2424 7.43398 28.2424 6.76592V4.60283C28.2424 3.68027 27.4917 2.92969 26.5691 2.92969H23.4312C22.5086 2.92969 21.7579 3.68027 21.7579 4.60283V6.76572C21.7579 7.43379 21.306 8.01719 20.6591 8.18408C19.0884 8.58945 17.5825 9.21455 16.1834 10.042C15.6076 10.3823 14.8747 10.2897 14.4019 9.81689L12.8698 8.28477C12.2093 7.62344 11.1484 7.63877 10.5042 8.28408L8.28477 10.5034C7.64199 11.1454 7.62051 12.2063 8.28418 12.8691L9.81689 14.4019C10.2897 14.8747 10.3823 15.6077 10.042 16.1833C9.21455 17.5823 8.58955 19.0882 8.18418 20.659C8.01719 21.3059 7.43379 21.7577 6.76582 21.7577H4.60293C3.68037 21.7578 2.92969 22.5084 2.92969 23.431V26.569C2.92969 27.4916 3.68037 28.2422 4.60293 28.2422H6.76572C7.43379 28.2422 8.01709 28.6941 8.18408 29.3409C8.58945 30.9117 9.21455 32.4176 10.0419 33.8166C10.3822 34.3922 10.2896 35.1252 9.8168 35.598L8.28467 37.1302C7.62236 37.7917 7.63965 38.8522 8.28408 39.4959L10.5033 41.7151C11.1466 42.3593 12.2075 42.3781 12.869 41.7157L14.4017 40.183C14.7501 39.8347 15.475 39.5391 16.1833 39.958Z" fill="#BF202F"/>
<path d="M25 35.8789C19.0013 35.8789 14.1211 30.9986 14.1211 25C14.1211 19.0014 19.0013 14.1211 25 14.1211C30.9987 14.1211 35.8789 19.0014 35.8789 25C35.8789 30.9986 30.9987 35.8789 25 35.8789ZM25 17.0508C20.6167 17.0508 17.0508 20.6168 17.0508 25C17.0508 29.3832 20.6168 32.9492 25 32.9492C29.3832 32.9492 32.9492 29.3832 32.9492 25C32.9492 20.6168 29.3833 17.0508 25 17.0508Z" fill="#BF202F"/>
</g>
<defs>
<clipPath id="clip0_132_813">
<rect width="50" height="50" fill="white"/>
</clipPath>
</defs>
</svg>
