<svg width="26" height="26" viewBox="0 0 26 26" fill="none" xmlns="http://www.w3.org/2000/svg">
<path d="M13.0007 1.08301C10.6438 1.08301 8.3398 1.78191 6.38011 3.09133C4.42043 4.40075 2.89304 6.26188 1.99109 8.43936C1.08915 10.6169 0.853158 13.0129 1.31297 15.3245C1.77277 17.6361 2.90773 19.7595 4.5743 21.426C6.24088 23.0926 8.36422 24.2276 10.6758 24.6874C12.9874 25.1472 15.3835 24.9112 17.561 24.0092C19.7385 23.1073 21.5996 21.5799 22.909 19.6202C24.2184 17.6605 24.9173 15.3566 24.9173 12.9997C24.9136 9.84032 23.6569 6.81144 21.4229 4.57744C19.1889 2.34343 16.16 1.08673 13.0007 1.08301V1.08301ZM17.0166 17.0156C16.8134 17.2187 16.5379 17.3328 16.2507 17.3328C15.9634 17.3328 15.6879 17.2187 15.4847 17.0156L12.2347 13.7656C12.0316 13.5625 11.9174 13.287 11.9173 12.9997V6.49968C11.9173 6.21236 12.0315 5.93681 12.2346 5.73364C12.4378 5.53048 12.7133 5.41634 13.0007 5.41634C13.288 5.41634 13.5635 5.53048 13.7667 5.73364C13.9699 5.93681 14.084 6.21236 14.084 6.49968V12.5512L17.0166 15.4838C17.2197 15.6869 17.3338 15.9624 17.3338 16.2497C17.3338 16.5369 17.2197 16.8124 17.0166 17.0156V17.0156Z" fill="#0C7283"/>
</svg>
