<svg width="50" height="50" viewBox="0 0 50 50" fill="none" xmlns="http://www.w3.org/2000/svg">
<path d="M27.9285 0.00146484C20.6598 0.00146484 14.7461 5.95888 14.7461 13.2815C14.7461 20.6042 20.6598 26.5616 27.9285 26.5616C35.1972 26.5616 41.1109 20.6042 41.1109 13.2815C41.1109 5.95888 35.1972 0.00146484 27.9285 0.00146484ZM38.0784 11.8168H33.7541C33.6214 8.88026 33.0898 6.02782 32.1752 3.86122C35.2941 5.29989 37.5788 8.27205 38.0784 11.8168ZM17.7786 14.7463H22.1029C22.2356 17.6828 22.7672 20.5352 23.6818 22.7017C20.5628 21.263 18.2782 18.2909 17.7786 14.7463ZM22.1029 11.8168H17.7786C18.2782 8.27196 20.5628 5.29989 23.6818 3.86132C22.7673 6.02802 22.2356 8.88026 22.1029 11.8168ZM29.6622 21.1069C28.9549 23.0149 28.1886 23.6322 27.9285 23.6322C27.6682 23.6322 26.9021 23.015 26.1948 21.1069C25.5628 19.4019 25.1559 17.1411 25.0366 14.7463H30.8205C30.701 17.1409 30.2943 19.4018 29.6622 21.1069ZM25.0365 11.8168C25.1558 9.42205 25.5627 7.16112 26.1947 5.45614C26.902 3.54814 27.6682 2.93085 27.9284 2.93085C28.1886 2.93085 28.9548 3.54804 29.6621 5.45614C30.2942 7.16112 30.701 9.42195 30.8203 11.8168H25.0365ZM32.1752 22.7017C33.0897 20.5351 33.6214 17.6729 33.7541 14.7364H38.0784C37.5788 18.2811 35.2941 21.263 32.1752 22.7017Z" fill="#BF202F"/>
<path d="M48.5307 30.6095C46.755 28.9994 44.0007 29.1573 42.3857 30.8911L38.0807 35.5126C37.5242 33.7237 35.8534 32.4211 33.8837 32.4211H26.2008C25.5264 32.4211 25.2284 32.0516 24.5453 31.4506C20.7001 28.0669 14.9096 28.0532 11.048 31.4084C10.2556 30.252 8.92576 29.4917 7.42118 29.4917H1.46474C0.65576 29.4916 0 30.1474 0 30.9563V48.5328C0 49.3417 0.65576 49.9976 1.46474 49.9976H7.42128C8.66043 49.9976 9.78055 49.4812 10.5801 48.6534C12.6068 49.5243 14.8794 49.9976 17.1067 49.9976H33.8837C37.1109 49.9976 40.1497 48.4782 42.0862 45.8965L49.118 36.521C49.1181 36.521 49.1182 36.5209 49.1183 36.5207C50.5839 34.5663 50.1084 32.0399 48.5307 30.6095ZM8.88592 33.8867C8.88592 33.8875 8.88592 33.8881 8.88592 33.8889V45.6034C8.88592 46.4122 8.23016 47.0681 7.42118 47.0681H2.92939V32.4211H7.42118C8.23006 32.4211 8.88592 33.0768 8.88592 33.8858V33.8867ZM46.7747 34.7629C46.7746 34.763 46.7745 34.7632 46.7744 34.7634L39.7425 44.1388C38.3594 45.9828 36.1888 47.0682 33.8836 47.0682H17.1067C15.2925 47.0682 13.4453 46.6886 11.7974 45.9892C11.8086 45.862 11.8154 45.7335 11.8154 45.6035V34.5753L12.8995 33.679C12.9111 33.6694 12.9225 33.6596 12.9339 33.6497C15.6921 31.2224 19.8521 31.2224 22.6101 33.6497C23.3523 34.3028 24.3342 35.3503 26.2009 35.3503H33.8413C34.629 35.3503 35.3079 35.9544 35.3467 36.7413C35.3882 37.5823 34.716 38.2798 33.8838 38.2798H23.4739C22.665 38.2799 22.0091 38.9356 22.0091 39.7447C22.0091 40.5536 22.6649 41.2094 23.4739 41.2094H34.8656C36.0806 41.2094 37.2525 40.6995 38.0808 39.8103L44.5292 32.8879C45.0901 32.2859 46.0084 32.2771 46.5777 32.7932C47.1043 33.2706 47.2612 34.1142 46.7747 34.7629Z" fill="#BF202F"/>
</svg>
