<svg width="15" height="15" viewBox="0 0 15 15" fill="none" xmlns="http://www.w3.org/2000/svg">
<path d="M7.5 15C11.6297 15 15 11.6294 15 7.5C15 3.37031 11.6294 0 7.5 0C3.37034 0 0 3.37058 0 7.5C0 11.6297 3.37058 15 7.5 15ZM9.72501 13.736C10.15 13.193 10.4757 12.5453 10.7203 11.8942H12.4479C11.7158 12.7178 10.7822 13.3577 9.72501 13.736ZM13.1081 11.0156H11.0045C11.2638 10.0726 11.4159 9.02707 11.4483 7.93945H14.1062C14.0321 9.0641 13.6761 10.1128 13.1081 11.0156ZM13.1081 3.98438C13.6761 4.88716 14.0321 5.9359 14.1062 7.06055H11.4483C11.4159 5.97293 11.2638 4.92738 11.0045 3.98438H13.1081ZM12.4478 3.10547H10.7203C10.4757 2.45493 10.15 1.80715 9.72498 1.26396C10.7822 1.64232 11.7158 2.28223 12.4478 3.10547ZM7.93945 0.954082C8.80184 1.24638 9.4205 2.272 9.77435 3.10547H7.93945V0.954082ZM7.93945 3.98438H10.0906C10.3701 4.90951 10.5345 5.95907 10.5691 7.06055H7.93945V3.98438ZM7.93945 7.93916H10.5691C10.5345 9.04093 10.3701 10.0905 10.0906 11.0156H7.93945V7.93916ZM7.93945 11.8942H9.77435C9.41991 12.7294 8.80113 13.7539 7.93945 14.0459V11.8942ZM2.55217 11.8945H4.27969C4.52426 12.5451 4.84995 13.1929 5.27502 13.736C4.21778 13.3577 3.28415 12.7178 2.55217 11.8945ZM7.06055 14.0459C6.1989 13.7539 5.58015 12.7295 5.22565 11.8945H7.06055V14.0459ZM7.06055 11.0156H4.90937C4.62993 10.0905 4.46555 9.04093 4.43095 7.93945H7.06055V11.0156ZM7.06055 7.06055H4.43095C4.46555 5.95907 4.62993 4.90951 4.90937 3.98438H7.06055V7.06055ZM7.06055 0.954082V3.10547H5.22565C5.58012 2.27057 6.19884 1.24614 7.06055 0.954082ZM5.27499 1.26396C4.85004 1.80697 4.52435 2.45464 4.27966 3.10547H2.55217C3.28415 2.28223 4.21778 1.6423 5.27499 1.26396ZM1.8919 3.98408H3.99554C3.7362 4.92738 3.58406 5.97293 3.55172 7.06055H0.893848C0.96791 5.9359 1.32393 4.88716 1.8919 3.98408ZM0.893848 7.93945H3.55172C3.58406 9.02707 3.7362 10.0726 3.99554 11.0156H1.8919C1.32393 10.1128 0.96791 9.0641 0.893848 7.93945Z" fill="#0C7283"/>
</svg>
