<svg width="10" height="10" viewBox="0 0 10 10" fill="none" xmlns="http://www.w3.org/2000/svg">
<g clip-path="url(#clip0_127_518)">
<path d="M9.87781 9.28866L7.03409 6.44494C7.58493 5.76453 7.91658 4.89995 7.91658 3.9583C7.91658 1.77582 6.14076 0 3.95828 0C1.7758 0 0 1.7758 0 3.95828C0 6.14076 1.77582 7.91658 3.9583 7.91658C4.89995 7.91658 5.76453 7.58493 6.44494 7.03409L9.28866 9.87781C9.36991 9.95906 9.47657 9.9999 9.58325 9.9999C9.68992 9.9999 9.79658 9.95906 9.87783 9.87781C10.0407 9.71491 10.0407 9.45157 9.87781 9.28866ZM3.9583 7.08325C2.23498 7.08325 0.833332 5.6816 0.833332 3.95828C0.833332 2.23496 2.23498 0.833312 3.9583 0.833312C5.68162 0.833312 7.08327 2.23496 7.08327 3.95828C7.08327 5.6816 5.6816 7.08325 3.9583 7.08325Z" fill="black"/>
</g>
<defs>
<clipPath id="clip0_127_518">
<rect width="10" height="10" fill="white"/>
</clipPath>
</defs>
</svg>
