<svg width="15" height="15" viewBox="0 0 15 15" fill="none" xmlns="http://www.w3.org/2000/svg">
<g clip-path="url(#clip0_139_3841)">
<path d="M13.8717 4.0689L13.8712 4.05723C13.8647 3.91315 13.8604 3.76071 13.8577 3.59111C13.8455 2.76405 13.188 2.07993 12.3608 2.03369C10.6362 1.93745 9.30207 1.37509 8.16213 0.263982L8.1524 0.254712C7.78059 -0.0862062 7.21971 -0.0862062 6.84778 0.254712L6.83805 0.263982C5.69811 1.37509 4.36396 1.93745 2.63934 2.03381C1.81228 2.07993 1.1547 2.76405 1.14246 3.59123C1.13994 3.75968 1.13548 3.91212 1.12895 4.05723L1.12827 4.08435C1.09474 5.84296 1.05308 8.03164 1.78527 10.0182C2.18787 11.1107 2.79761 12.0603 3.59744 12.8409C4.50839 13.7299 5.70154 14.4356 7.14372 14.9385C7.19064 14.9548 7.2394 14.9681 7.28906 14.9781C7.3591 14.992 7.4296 14.999 7.50009 14.999C7.57059 14.999 7.6412 14.992 7.71112 14.9781C7.76079 14.9681 7.80988 14.9547 7.85703 14.9382C9.29749 14.4345 10.4894 13.7284 11.3995 12.8395C12.199 12.0587 12.8088 11.1088 13.2117 10.0162C13.9466 8.02363 13.9051 5.83083 13.8717 4.0689ZM12.3859 9.71163C11.6137 11.8054 10.0372 13.2434 7.56658 14.1074C7.55777 14.1104 7.54839 14.113 7.53866 14.115C7.51314 14.12 7.48716 14.12 7.4613 14.1148C7.45168 14.1129 7.4423 14.1104 7.4336 14.1074C4.96031 13.245 3.38286 11.8078 2.61119 9.71391C1.93633 7.88275 1.97456 5.87363 2.00832 4.10118L2.00854 4.09133C2.01541 3.93901 2.01999 3.77948 2.02251 3.60416C2.028 3.23692 2.32051 2.93308 2.68844 2.9126C3.66439 2.85812 4.52177 2.66952 5.30958 2.33604C6.09636 2.00302 6.79514 1.53359 7.44562 0.900958C7.47869 0.873035 7.52161 0.87292 7.55456 0.900958C8.20516 1.53359 8.90393 2.00302 9.6906 2.33604C10.4784 2.66952 11.3358 2.85812 12.3119 2.9126C12.6798 2.93308 12.9723 3.23692 12.9777 3.60427C12.9803 3.78051 12.9849 3.94004 12.9918 4.09133C13.0254 5.86585 13.0627 7.87657 12.3859 9.71163Z" fill="#0C7283"/>
<path d="M7.49993 3.76221C5.43862 3.76221 3.76172 5.43922 3.76172 7.50042C3.76172 9.56173 5.43862 11.2387 7.49993 11.2387C9.56113 11.2387 11.2381 9.56173 11.2381 7.50042C11.2381 5.43922 9.56113 3.76221 7.49993 3.76221ZM7.49993 10.3585C5.92397 10.3585 4.64188 9.07639 4.64188 7.50042C4.64188 5.92445 5.92397 4.64237 7.49993 4.64237C9.07578 4.64237 10.3579 5.92445 10.3579 7.50042C10.3579 9.07639 9.07578 10.3585 7.49993 10.3585Z" fill="#0C7283"/>
<path d="M8.57408 6.33945L6.83778 8.07575L6.36651 7.60448C6.19462 7.43259 5.91596 7.43259 5.74407 7.60448C5.57229 7.77637 5.57229 8.05504 5.74407 8.22681L6.52661 9.00936C6.61256 9.0953 6.72517 9.13822 6.83778 9.13822C6.95039 9.13822 7.063 9.0953 7.14894 9.00936L9.19652 6.96178C9.3683 6.78989 9.3683 6.51123 9.19652 6.33945C9.02463 6.16745 8.74597 6.16745 8.57408 6.33945Z" fill="#0C7283"/>
</g>
<defs>
<clipPath id="clip0_139_3841">
<rect width="15" height="15" fill="white"/>
</clipPath>
</defs>
</svg>
