<svg width="15" height="15" viewBox="0 0 15 15" fill="none" xmlns="http://www.w3.org/2000/svg">
<g clip-path="url(#clip0_139_3677)">
<path d="M7.50004 14.9932C0.842694 14.9865 -2.50593 6.90154 2.19679 2.18988C4.98846 -0.719327 10.0117 -0.719796 12.8033 2.18999C17.506 6.90206 14.157 14.9869 7.50004 14.9932V14.9932ZM7.50004 1.16507C4.01071 1.16507 1.17193 4.00385 1.17193 7.49319C1.51954 15.8883 13.4818 15.8858 13.8282 7.49313C13.8282 4.00388 10.9894 1.16507 7.50004 1.16507ZM10.2288 9.39332L8.3776 7.54211C8.39389 7.26871 8.27729 7.00742 8.08569 6.83785C8.08586 6.83172 8.08598 6.82557 8.08598 6.81939V3.39166C8.05504 2.61424 6.94478 2.61483 6.91411 3.39166V6.81939C6.91411 6.82557 6.91422 6.83172 6.9144 6.83785C6.30166 7.38634 6.71732 8.4136 7.54894 8.37077L9.40015 10.222C9.62896 10.4508 9.99997 10.4508 10.2288 10.222C10.4576 9.99314 10.4576 9.62216 10.2288 9.39332V9.39332Z" fill="#BF202F"/>
</g>
<defs>
<clipPath id="clip0_139_3677">
<rect width="15" height="15" fill="white"/>
</clipPath>
</defs>
</svg>
