<svg width="30" height="30" viewBox="0 0 30 30" fill="none" xmlns="http://www.w3.org/2000/svg">
<path d="M29.7559 14.4078L21.1926 5.84449C20.8661 5.51798 20.3424 5.51798 20.0159 5.84449C19.6894 6.17101 19.6894 6.69466 20.0159 7.02117L27.1622 14.1675H0.831685C0.369638 14.1675 0 14.5371 0 14.9992C0 15.4612 0.369638 15.8309 0.831685 15.8309H27.1622L20.0159 22.9772C19.6894 23.3037 19.6894 23.8274 20.0159 24.1539C20.1761 24.3141 20.3917 24.4003 20.6012 24.4003C20.8106 24.4003 21.0262 24.3202 21.1864 24.1539L29.7497 15.5906C30.0824 15.2579 30.0824 14.7281 29.7559 14.4078Z" fill="black"/>
</svg>
