<svg width="15" height="15" viewBox="0 0 15 15" fill="none" xmlns="http://www.w3.org/2000/svg">
<path d="M3.07617 2.63672H6.22585C6.42999 3.63844 7.31777 4.39453 8.37891 4.39453H12.7734C13.0161 4.39453 13.2129 4.19777 13.2129 3.95508V3.51562H14.5605C14.8032 3.51562 15 3.31887 15 3.07617V1.31836C15 1.07566 14.8032 0.878906 14.5605 0.878906H13.2129V0.439453C13.2129 0.196758 13.0161 0 12.7734 0H8.37891C7.31777 0 6.43002 0.756094 6.22585 1.75781H3.07617C1.37997 1.75781 0 3.13778 0 4.83398C0 6.53019 1.37997 7.91016 3.07617 7.91016H11.8945C13.1014 7.91016 14.1211 8.9298 14.1211 10.1367C14.1211 11.3436 13.1014 12.3633 11.8945 12.3633H8.77415C8.57001 11.3616 7.68223 10.6055 6.62109 10.6055H2.19727C1.95457 10.6055 1.75781 10.8022 1.75781 11.0449V11.4844H0.439453C0.196758 11.4844 0 11.6811 0 11.9238V13.6816C0 13.9243 0.196758 14.1211 0.439453 14.1211H1.75781V14.5605C1.75781 14.8032 1.95457 15 2.19727 15H6.62109C7.68223 15 8.56998 14.2439 8.77415 13.2422H11.8945C13.5928 13.2422 15 11.8401 15 10.1367C15 8.43841 13.5979 7.03125 11.8945 7.03125H3.07617C1.8646 7.03125 0.878906 6.04556 0.878906 4.83398C0.878906 3.62241 1.8646 2.63672 3.07617 2.63672ZM13.2129 1.75781H14.1211V2.63672H13.2129V1.75781ZM8.37891 0.878906H12.334C12.334 1.3125 12.334 3.24829 12.334 3.51562H8.37891C7.65196 3.51562 7.06055 2.92421 7.06055 2.19727C7.06055 1.47032 7.65196 0.878906 8.37891 0.878906ZM1.75781 13.2422H0.878906V12.3633H1.75781V13.2422ZM6.62109 14.1211H2.63672C2.63672 13.8542 2.63672 11.9141 2.63672 11.4844H6.62109C7.34804 11.4844 7.93945 12.0758 7.93945 12.8027C7.93945 13.5297 7.34804 14.1211 6.62109 14.1211Z" fill="#0C7283"/>
<path d="M6.62109 12.3633H3.95508C3.71238 12.3633 3.51562 12.56 3.51562 12.8027C3.51562 13.0454 3.71238 13.2422 3.95508 13.2422H6.62109C6.86379 13.2422 7.06055 13.0454 7.06055 12.8027C7.06055 12.56 6.86379 12.3633 6.62109 12.3633Z" fill="#0C7283"/>
<path d="M11.0156 1.75781H8.37891C8.13621 1.75781 7.93945 1.95457 7.93945 2.19727C7.93945 2.43996 8.13621 2.63672 8.37891 2.63672H11.0156C11.2583 2.63672 11.4551 2.43996 11.4551 2.19727C11.4551 1.95457 11.2583 1.75781 11.0156 1.75781Z" fill="#0C7283"/>
</svg>
