<svg width="50" height="50" viewBox="0 0 50 50" fill="none" xmlns="http://www.w3.org/2000/svg">
<path d="M45.8506 30.957C46.5479 30.1787 46.9727 29.1514 46.9727 28.0273C46.9727 25.6045 45.001 23.6328 42.5781 23.6328H34.0488C34.8936 21.0693 35.2539 17.668 35.2539 16.21V14.7461C35.2539 11.5156 32.625 8.88672 29.3945 8.88672H27.9297C27.2578 8.88672 26.6719 9.34375 26.5088 9.99609L25.7109 13.1885C24.5928 17.6592 21.043 22.5918 17.3691 23.4883C16.7256 21.8594 15.1367 20.7031 13.2812 20.7031H4.49219C3.68359 20.7031 3.02734 21.3594 3.02734 22.168V48.5352C3.02734 49.3438 3.68359 50 4.49219 50H13.2812C15.0283 50 16.54 48.9756 17.248 47.4951L22.2812 49.1729C23.9268 49.7217 25.6416 50 27.377 50H39.6484C42.0713 50 44.043 48.0283 44.043 45.6055C44.043 45.0342 43.9336 44.4873 43.7344 43.9863C45.5977 43.4775 46.9727 41.7695 46.9727 39.7461C46.9727 38.6221 46.5479 37.5947 45.8506 36.8164C46.5479 36.0381 46.9727 35.0107 46.9727 33.8867C46.9727 32.7627 46.5479 31.7354 45.8506 30.957ZM14.7461 45.6055C14.7461 46.4131 14.0889 47.0703 13.2812 47.0703H5.95703V23.6328H13.2812C14.0889 23.6328 14.7461 24.29 14.7461 25.0977V45.6055ZM39.6484 32.4219H42.5781C43.3857 32.4219 44.043 33.0791 44.043 33.8867C44.043 34.6943 43.3857 35.3516 42.5781 35.3516H39.6484C38.8398 35.3516 38.1836 36.0078 38.1836 36.8164C38.1836 37.625 38.8398 38.2812 39.6484 38.2812H42.5781C43.3857 38.2812 44.043 38.9385 44.043 39.7461C44.043 40.5537 43.3857 41.2109 42.5781 41.2109H39.6484C38.8398 41.2109 38.1836 41.8672 38.1836 42.6758C38.1836 43.4844 38.8398 44.1406 39.6484 44.1406C40.4561 44.1406 41.1133 44.7979 41.1133 45.6055C41.1133 46.4131 40.4561 47.0703 39.6484 47.0703H27.377C25.957 47.0703 24.5537 46.8428 23.207 46.3936L17.6758 44.5498V26.4238C19.9736 25.9873 22.2227 24.5322 24.2529 22.1504C26.2354 19.8242 27.8428 16.7402 28.5527 13.8994L29.0732 11.8164H29.3945C31.0098 11.8164 32.3242 13.1309 32.3242 14.7461V16.21C32.3242 18.1768 31.709 21.9492 30.9219 23.6328H27.9297C27.1211 23.6328 26.4648 24.2891 26.4648 25.0977C26.4648 25.9062 27.1211 26.5625 27.9297 26.5625H42.5781C43.3857 26.5625 44.043 27.2197 44.043 28.0273C44.043 28.835 43.3857 29.4922 42.5781 29.4922H39.6484C38.8398 29.4922 38.1836 30.1484 38.1836 30.957C38.1836 31.7656 38.8398 32.4219 39.6484 32.4219Z" fill="#BF202F"/>
<path d="M10.3516 44.1406C11.1606 44.1406 11.8164 43.4848 11.8164 42.6758C11.8164 41.8668 11.1606 41.2109 10.3516 41.2109C9.54255 41.2109 8.88672 41.8668 8.88672 42.6758C8.88672 43.4848 9.54255 44.1406 10.3516 44.1406Z" fill="#BF202F"/>
<path d="M30.8594 0C30.0504 0 29.3945 0.655859 29.3945 1.46484V4.49219C29.3945 5.30117 30.0504 5.95703 30.8594 5.95703C31.6684 5.95703 32.3242 5.30117 32.3242 4.49219V1.46484C32.3242 0.655859 31.6684 0 30.8594 0Z" fill="#BF202F"/>
<path d="M24.6445 6.45962L22.5729 4.38804C22.0009 3.81597 21.0734 3.81597 20.5013 4.38804C19.9292 4.96011 19.9292 5.88755 20.5013 6.45962L22.5729 8.5312C23.1449 9.10318 24.0725 9.10327 24.6445 8.5312C25.2166 7.95913 25.2166 7.03169 24.6445 6.45962Z" fill="#BF202F"/>
<path d="M41.2187 4.38804C40.6467 3.81597 39.7192 3.81597 39.1471 4.38804L37.0755 6.45952C36.5035 7.03159 36.5035 7.95904 37.0755 8.53111C37.6475 9.10318 38.5751 9.10327 39.1471 8.5312L41.2187 6.45962C41.7908 5.88755 41.7908 4.96011 41.2187 4.38804Z" fill="#BF202F"/>
</svg>
