<svg width="26" height="26" viewBox="0 0 26 26" fill="none" xmlns="http://www.w3.org/2000/svg">
<g clip-path="url(#clip0_139_4021)">
<path d="M20.6172 1.57422H14.5234C11.5837 1.57422 9.19141 3.96647 9.19141 6.90625C9.19141 9.58791 11.1813 11.8135 13.7617 12.184V14.5234C13.7617 14.8314 13.9469 15.1096 14.2319 15.2271C14.5128 15.3444 14.8424 15.2815 15.062 15.062L17.8857 12.2383H20.6172C23.557 12.2383 26 9.84603 26 6.90625C26 3.96647 23.557 1.57422 20.6172 1.57422ZM14.5234 7.66787C14.1027 7.66787 13.7617 7.32682 13.7617 6.90615C13.7617 6.48548 14.1027 6.14443 14.5234 6.14443C14.9441 6.14443 15.2852 6.48548 15.2852 6.90615C15.2852 7.32682 14.9441 7.66787 14.5234 7.66787ZM17.5703 7.66787C17.1495 7.66787 16.8086 7.32682 16.8086 6.90615C16.8086 6.48548 17.1495 6.14443 17.5703 6.14443C17.991 6.14443 18.332 6.48548 18.332 6.90615C18.332 7.32682 17.991 7.66787 17.5703 7.66787ZM20.6172 7.66787C20.1964 7.66787 19.8555 7.32682 19.8555 6.90615C19.8555 6.48548 20.1964 6.14443 20.6172 6.14443C21.0379 6.14443 21.3789 6.48548 21.3789 6.90615C21.3789 7.32682 21.0379 7.66787 20.6172 7.66787Z" fill="#0C7283"/>
<path d="M17.1133 24.4258C18.3734 24.4258 19.3984 23.4007 19.3984 22.1406V19.0938C19.3984 18.7657 19.1887 18.4748 18.8777 18.3714L14.3181 16.848C14.0949 16.7729 13.851 16.8071 13.6546 16.9365L11.7161 18.2286C9.66301 17.2497 7.22688 14.8135 6.24792 12.7604L7.54 10.8219C7.67015 10.6262 7.70291 10.3815 7.62851 10.1584L6.10507 5.59879C6.00173 5.2879 5.71086 5.07812 5.38281 5.07812H2.28516C1.02507 5.07812 0 6.09248 0 7.35257C0 16.1287 8.33716 24.4258 17.1133 24.4258Z" fill="#0C7283"/>
</g>
<defs>
<clipPath id="clip0_139_4021">
<rect width="26" height="26" fill="white"/>
</clipPath>
</defs>
</svg>
