<svg width="40" height="40" viewBox="0 0 40 40" fill="none" xmlns="http://www.w3.org/2000/svg">
<path d="M36.0129 9.534H27.2928V6.57257C27.2928 4.88678 25.9216 3.51562 24.2358 3.51562H15.7642C14.0784 3.51562 12.7072 4.88678 12.7072 6.57257V9.534H3.98712C1.78864 9.534 0 11.3226 0 13.5211V32.5269C0 34.7253 1.78864 36.514 3.98712 36.514H36.0129C38.2114 36.514 40 34.7253 40 32.5269V13.5211C40 11.3226 38.2114 9.534 36.0129 9.534ZM15.0818 6.57257C15.0818 6.19629 15.3879 5.8902 15.7642 5.8902H24.2358C24.6121 5.8902 24.9182 6.19629 24.9182 6.57257V9.534H15.0818V6.57257ZM2.37457 13.5211C2.37457 12.6321 3.09814 11.9086 3.98712 11.9086H36.0129C36.9019 11.9086 37.6254 12.6321 37.6254 13.5211V17.0474H2.37457V13.5211ZM15.7639 19.422H24.2361V20.433C24.2361 21.514 23.3569 22.3932 22.2757 22.3932H17.724C16.6431 22.3932 15.7639 21.514 15.7639 20.433V19.422ZM37.6254 32.5269C37.6254 33.4161 36.9019 34.1394 36.0129 34.1394H3.98712C3.09814 34.1394 2.37457 33.4161 2.37457 32.5269V19.422H13.389V20.433C13.389 22.8232 15.3339 24.7678 17.724 24.7678H22.2757C24.6661 24.7678 26.6107 22.8232 26.6107 20.433V19.422H37.6254V32.5269Z" fill="#0C7283"/>
</svg>
