<svg width="40" height="40" viewBox="0 0 40 40" fill="none" xmlns="http://www.w3.org/2000/svg">
<path d="M38.8281 13.8073H34.9335C34.3337 6.09336 27.8652 0 20 0C12.1348 0 5.66625 6.09336 5.06648 13.8073H1.17188C0.524687 13.8073 0 14.332 0 14.9791V27.5312C0 28.1784 0.524687 28.7031 1.17188 28.7031H6.19273C6.83992 28.7031 7.36461 28.1784 7.36461 27.5312V14.9791C7.36461 8.01195 13.0328 2.34375 20 2.34375C26.9672 2.34375 32.6354 8.01195 32.6354 14.9791V27.5312C32.6354 31.7299 29.2195 35.1459 25.0208 35.1459H23.49C22.9993 33.6884 21.6207 32.6355 20 32.6355C17.9696 32.6355 16.3177 34.2873 16.3177 36.3177C16.3177 38.3481 17.9696 40 20 40C21.6207 40 22.9993 38.947 23.49 37.4896H25.0208C30.1153 37.4896 34.328 33.6439 34.9098 28.7031H38.8281C39.4753 28.7031 40 28.1784 40 27.5312V14.9791C40 14.332 39.4753 13.8073 38.8281 13.8073ZM5.02086 26.3594H2.34375V16.151H5.02086V26.3594ZM20 37.6562C19.262 37.6562 18.6614 37.0558 18.6614 36.3177C18.6614 35.5797 19.262 34.9792 20 34.9792C20.738 34.9792 21.3386 35.5797 21.3386 36.3177C21.3386 37.0558 20.738 37.6562 20 37.6562ZM37.6562 26.3594H34.9791V16.151H37.6562V26.3594Z" fill="#0C7283"/>
<path d="M28.6074 13.8964C28.1697 13.715 27.6656 13.8152 27.3304 14.1503C27.3303 14.1503 23.6716 17.8079 21.9369 19.5413C21.1577 20.3247 20.7109 21.4069 20.7109 22.5103C20.7109 23.1575 21.2356 23.6822 21.8828 23.6822H26.987V26.2759C26.987 26.9231 27.5117 27.4478 28.1589 27.4478C28.8061 27.4478 29.3308 26.9231 29.3308 26.2759V23.6822H29.4141C30.0613 23.6822 30.5859 23.1575 30.5859 22.5103C30.5859 21.8631 30.0613 21.3384 29.4141 21.3384H29.3308V14.9791C29.3308 14.5052 29.0452 14.0779 28.6074 13.8964ZM26.987 21.3384H23.4692C23.5091 21.2891 23.5514 21.2417 23.5962 21.1966C24.4739 20.3195 25.8466 18.9475 26.987 17.8075V21.3384Z" fill="#0C7283"/>
<path d="M18.6617 26.2759C18.6617 25.6287 18.137 25.104 17.4898 25.104H12.8002C12.84 25.0546 12.8823 25.0072 12.9271 24.9622C14.6593 23.2312 18.3183 19.5734 18.3183 19.5734C18.5382 19.3536 18.6618 19.0555 18.6618 18.7446V18.1171C18.6618 15.7406 16.7284 13.8071 14.3519 13.8071C11.9518 13.8071 10.042 15.7518 10.042 18.1157V18.117C10.042 18.7642 10.5667 19.2882 11.2139 19.2882C11.8611 19.2882 12.3857 18.7629 12.3857 18.1157C12.3857 17.0415 13.2507 16.1509 14.3519 16.1509C15.4361 16.1509 16.318 17.0329 16.318 18.1171V18.2591C15.3678 19.209 12.6802 21.8956 11.2679 23.307C10.4887 24.0903 10.042 25.1725 10.042 26.2759C10.042 26.9231 10.5667 27.4478 11.2139 27.4478H17.4899C18.137 27.4478 18.6617 26.9231 18.6617 26.2759Z" fill="#0C7283"/>
</svg>
