<svg width="15" height="15" viewBox="0 0 15 15" fill="none" xmlns="http://www.w3.org/2000/svg">
<path d="M12.4876 9.43359H9.87179L11.4478 6.78583L11.4525 6.7778C11.8375 6.09879 12.041 5.32532 12.041 4.54102C12.041 2.0371 10.0039 0 7.5 0C4.99608 0 2.95898 2.0371 2.95898 4.54102C2.95898 5.32532 3.16251 6.09879 3.54753 6.77783L5.1283 9.43359H2.48156L0 14.4281V15H15V14.4269L12.4876 9.43359ZM4.30989 6.3404C4.0011 5.79425 3.83789 5.17213 3.83789 4.54102C3.83789 2.52173 5.48071 0.878906 7.5 0.878906C9.51929 0.878906 11.1621 2.52173 11.1621 4.54102C11.1621 5.1721 10.9989 5.79419 10.6902 6.34031L7.5 11.6998L4.30989 6.3404ZM1.13396 14.1211L3.02628 10.3125H5.65146L7.22089 12.9492H7.77917L9.34863 10.3125H11.946L13.8623 14.1211H1.13396Z" fill="white"/>
<path d="M7.5 2.92969C6.61151 2.92969 5.88867 3.65253 5.88867 4.54102C5.88867 5.4295 6.61151 6.15234 7.5 6.15234C8.38849 6.15234 9.11133 5.4295 9.11133 4.54102C9.11133 3.65253 8.38849 2.92969 7.5 2.92969ZM7.5 5.27344C7.09614 5.27344 6.76758 4.94487 6.76758 4.54102C6.76758 4.13716 7.09614 3.80859 7.5 3.80859C7.90386 3.80859 8.23242 4.13716 8.23242 4.54102C8.23242 4.94487 7.90386 5.27344 7.5 5.27344Z" fill="white"/>
</svg>
