<svg width="15" height="15" viewBox="0 0 15 15" fill="none" xmlns="http://www.w3.org/2000/svg">
<g clip-path="url(#clip0_223_428)">
<path d="M7.5 6.06445C8.90543 6.06445 10.0488 4.92105 10.0488 3.51562C10.0488 2.1102 8.90543 0.966797 7.5 0.966797C6.09457 0.966797 4.95117 2.1102 4.95117 3.51562C4.95117 4.92105 6.09457 6.06445 7.5 6.06445ZM7.5 1.8457C8.4208 1.8457 9.16992 2.59482 9.16992 3.51562C9.16992 4.43643 8.4208 5.18555 7.5 5.18555C6.5792 5.18555 5.83008 4.43643 5.83008 3.51562C5.83008 2.59482 6.5792 1.8457 7.5 1.8457Z" fill="#0C7283"/>
<path d="M12.6562 6.06445C13.5447 6.06445 14.2676 5.34161 14.2676 4.45312C14.2676 3.56464 13.5447 2.8418 12.6562 2.8418C11.7678 2.8418 11.0449 3.56464 11.0449 4.45312C11.0449 5.34161 11.7678 6.06445 12.6562 6.06445ZM12.6562 3.7207C13.0601 3.7207 13.3887 4.04927 13.3887 4.45312C13.3887 4.85698 13.0601 5.18555 12.6562 5.18555C12.2524 5.18555 11.9238 4.85698 11.9238 4.45312C11.9238 4.04927 12.2524 3.7207 12.6562 3.7207Z" fill="#0C7283"/>
<path d="M13.0107 7.06055H12.3311C11.5301 7.06055 10.8387 7.53375 10.5236 8.21344C9.87498 7.50533 8.94325 7.06055 7.90954 7.06055H7.09049C6.05678 7.06055 5.12505 7.50533 4.47639 8.21344C4.1613 7.53375 3.46989 7.06055 2.66895 7.06055H1.98926C0.892383 7.06055 0 7.94754 0 9.03779V12.2373C0 12.7106 0.386543 13.0957 0.86168 13.0957H3.54899C3.59405 13.6201 4.03503 14.0332 4.57096 14.0332H10.4291C10.965 14.0332 11.4059 13.6201 11.451 13.0957H14.1076C14.5997 13.0957 15 12.697 15 12.2068V9.03779C15 7.94754 14.1076 7.06055 13.0107 7.06055ZM0.878906 9.03779C0.878906 8.43217 1.37701 7.93945 1.98926 7.93945H2.66895C3.28119 7.93945 3.7793 8.43217 3.7793 9.03779V9.3387C3.48378 10.1082 3.54492 10.5693 3.54492 12.2168H0.878906V9.03779ZM10.5762 13.0072C10.5762 13.0883 10.5102 13.1543 10.4291 13.1543H4.57093C4.4898 13.1543 4.42383 13.0883 4.42383 13.0072V10.6061C4.42383 9.1357 5.62008 7.93945 7.09046 7.93945H7.90951C9.37992 7.93945 10.5762 9.1357 10.5762 10.6061V13.0072ZM14.1211 12.2068C14.1211 12.222 14.2849 12.2168 11.4551 12.2168C11.4551 10.5571 11.5158 10.1069 11.2207 9.3387V9.03779C11.2207 8.43217 11.7188 7.93945 12.3311 7.93945H13.0107C13.623 7.93945 14.1211 8.43217 14.1211 9.03779V12.2068Z" fill="#0C7283"/>
<path d="M2.34375 6.06445C3.23224 6.06445 3.95508 5.34161 3.95508 4.45312C3.95508 3.56464 3.23224 2.8418 2.34375 2.8418C1.45526 2.8418 0.732422 3.56464 0.732422 4.45312C0.732422 5.34161 1.45526 6.06445 2.34375 6.06445ZM2.34375 3.7207C2.74761 3.7207 3.07617 4.04927 3.07617 4.45312C3.07617 4.85698 2.74761 5.18555 2.34375 5.18555C1.93989 5.18555 1.61133 4.85698 1.61133 4.45312C1.61133 4.04927 1.93989 3.7207 2.34375 3.7207Z" fill="#0C7283"/>
</g>
<defs>
<clipPath id="clip0_223_428">
<rect width="15" height="15" fill="white"/>
</clipPath>
</defs>
</svg>
