<svg width="26" height="26" viewBox="0 0 26 26" fill="none" xmlns="http://www.w3.org/2000/svg">
<path d="M13 1C10.6266 1 8.30655 1.70379 6.33316 3.02236C4.35977 4.34094 2.8217 6.21508 1.91345 8.4078C1.0052 10.6005 0.767559 13.0133 1.23058 15.3411C1.6936 17.6689 2.83649 19.807 4.51472 21.4853C6.19295 23.1635 8.33115 24.3064 10.6589 24.7694C12.9867 25.2324 15.3995 24.9948 17.5922 24.0865C19.7849 23.1783 21.6591 21.6402 22.9776 19.6668C24.2962 17.6934 25 15.3734 25 13C24.9973 9.81821 23.7322 6.7675 21.4824 4.51764C19.2325 2.26778 16.1818 1.00265 13 1V1ZM17 11C17 11.2652 16.8946 11.5196 16.7071 11.7071C16.5196 11.8946 16.2652 12 16 12C15.7348 12 15.4804 11.8946 15.2929 11.7071C15.1054 11.5196 15 11.2652 15 11V10.32C15.0002 10.1466 14.9661 9.97488 14.8999 9.81465C14.8336 9.65443 14.7364 9.50884 14.6138 9.38624C14.4912 9.26363 14.3456 9.1664 14.1853 9.10013C14.0251 9.03385 13.8534 8.99983 13.68 9H12.32C12.0056 9.00077 11.7018 9.11345 11.463 9.31784C11.2242 9.52223 11.0659 9.80498 11.0166 10.1154C10.9672 10.4259 11.03 10.7438 11.1937 11.0121C11.3575 11.2805 11.6114 11.4818 11.91 11.58L14.73 12.52C15.4519 12.7613 16.0691 13.243 16.4784 13.8847C16.8878 14.5263 17.0645 15.2891 16.979 16.0454C16.8935 16.8017 16.5511 17.5058 16.0089 18.0399C15.4666 18.574 14.7575 18.9059 14 18.98V20C14 20.2652 13.8946 20.5196 13.7071 20.7071C13.5196 20.8946 13.2652 21 13 21C12.7348 21 12.4804 20.8946 12.2929 20.7071C12.1054 20.5196 12 20.2652 12 20V18.98C11.1797 18.9001 10.4183 18.5181 9.86389 17.9083C9.30946 17.2984 9.00156 16.5042 9 15.68V15C9 14.7348 9.10536 14.4804 9.2929 14.2929C9.48043 14.1054 9.73479 14 10 14C10.2652 14 10.5196 14.1054 10.7071 14.2929C10.8946 14.4804 11 14.7348 11 15V15.68C10.9998 15.8534 11.0339 16.0251 11.1001 16.1853C11.1664 16.3456 11.2636 16.4911 11.3862 16.6138C11.5088 16.7364 11.6544 16.8336 11.8147 16.8999C11.9749 16.9661 12.1466 17.0002 12.32 17H13.68C13.9944 16.9992 14.2982 16.8865 14.537 16.6822C14.7758 16.4778 14.9341 16.195 14.9834 15.8846C15.0328 15.5741 14.97 15.2562 14.8063 14.9878C14.6425 14.7195 14.3886 14.5182 14.09 14.42L11.27 13.48C10.5481 13.2387 9.93094 12.757 9.52159 12.1153C9.11224 11.4736 8.93553 10.7109 9.021 9.95461C9.10646 9.1983 9.44893 8.49423 9.99115 7.96009C10.5334 7.42595 11.2425 7.0941 12 7.02V6C12 5.73478 12.1054 5.48043 12.2929 5.29289C12.4804 5.10536 12.7348 5 13 5C13.2652 5 13.5196 5.10536 13.7071 5.29289C13.8946 5.48043 14 5.73478 14 6V7.02C14.8203 7.09987 15.5817 7.48184 16.1361 8.09171C16.6905 8.70158 16.9984 9.49578 17 10.32V11Z" fill="#0C7283"/>
</svg>
