<svg width="50" height="50" viewBox="0 0 50 50" fill="none" xmlns="http://www.w3.org/2000/svg">
<g clip-path="url(#clip0_132_936)">
<path d="M49.9025 39.4053C49.7296 38.875 49.2716 38.4883 48.7198 38.4082L44.4386 37.7861L42.5245 33.9072C42.2775 33.4072 41.7687 33.0898 41.211 33.0898C40.6534 33.0898 40.1437 33.4072 39.8966 33.9072L37.9825 37.7861L33.7013 38.4082C33.504 38.4365 33.3185 38.5049 33.1544 38.6055C32.9894 38.5049 32.8038 38.4365 32.6066 38.4082L28.3253 37.7861L26.4112 33.9072C26.1642 33.4072 25.6544 33.0898 25.0978 33.0898C24.5401 33.0898 24.0304 33.4072 23.7833 33.9072L21.8692 37.7861L17.588 38.4082C17.3712 38.4395 17.1681 38.5195 16.9923 38.6357C16.8155 38.5195 16.6124 38.4395 16.3956 38.4082L12.1144 37.7861L10.2003 33.9072C9.95323 33.4072 9.44346 33.0898 8.88682 33.0898C8.32921 33.0898 7.81944 33.4072 7.57237 33.9072L5.65929 37.7842L1.28331 38.4072C0.727645 38.4863 0.26573 38.877 0.094832 39.4121C-0.0760665 39.9473 0.0743242 40.5332 0.481551 40.9199L3.66319 43.9404L2.93077 48.292C2.83897 48.8408 3.06554 49.3955 3.51671 49.7217C3.96788 50.0478 4.56456 50.0908 5.05772 49.832L8.88682 47.8184L12.7149 49.832C13.2069 50.0893 13.8028 50.0498 14.256 49.7217C14.7071 49.3955 14.9337 48.8408 14.8419 48.292L14.1075 43.9287L16.9923 41.1162L19.8761 43.9287L19.1417 48.292C19.0499 48.8408 19.2765 49.3955 19.7276 49.7217C20.1788 50.0478 20.7755 50.0908 21.2687 49.832L25.0978 47.8184L28.9259 49.832C29.4179 50.0893 30.0138 50.0498 30.4669 49.7217C30.9181 49.3955 31.1446 48.8408 31.0528 48.292L30.3185 43.9287L33.1544 41.1641L35.9894 43.9287L35.255 48.292C35.1632 48.8408 35.3898 49.3955 35.8409 49.7217C36.2921 50.0478 36.8888 50.0908 37.3819 49.832L41.211 47.8184L45.0392 49.832C45.5312 50.0893 46.1271 50.0498 46.5802 49.7217C47.0314 49.3955 47.2579 48.8408 47.1661 48.292L46.4317 43.9287L49.5314 40.9062C49.9308 40.5176 50.0743 39.9355 49.9025 39.4053ZM11.5128 42.3662C11.1691 42.7012 11.0108 43.1836 11.0909 43.6582L11.462 45.8633L9.56846 44.8672C9.3546 44.7549 9.12022 44.6992 8.88682 44.6992C8.65245 44.6992 8.41807 44.7549 8.20518 44.8672L6.31065 45.8633L6.68175 43.6582C6.7628 43.1777 6.59874 42.6875 6.2462 42.3525L4.69542 40.8809L6.838 40.5752C7.31651 40.5068 7.73057 40.2069 7.94444 39.7734L8.88682 37.8652L9.82823 39.7734C10.0411 40.2051 10.4542 40.5049 10.9308 40.5742L13.0372 40.8809L11.5128 42.3662ZM27.7237 42.3662C27.38 42.7012 27.2228 43.1836 27.3019 43.6582L27.673 45.8633L25.7794 44.8672C25.5655 44.7549 25.3312 44.6992 25.0978 44.6992C24.8634 44.6992 24.629 44.7549 24.4161 44.8672L22.5216 45.8633L22.8927 43.6582C22.9728 43.1836 22.8146 42.7012 22.4708 42.3662L20.9464 40.8809L23.0528 40.5742C23.5294 40.5049 23.9425 40.2051 24.1554 39.7734L25.0978 37.8652L26.0392 39.7734C26.2521 40.2051 26.6651 40.5049 27.1417 40.5742L29.2482 40.8809L27.7237 42.3662ZM43.837 42.3662C43.4933 42.7012 43.336 43.1836 43.4151 43.6582L43.7862 45.8633L41.8927 44.8672C41.6788 44.7549 41.4444 44.6992 41.211 44.6992C40.9767 44.6992 40.7423 44.7549 40.5284 44.8672L38.6349 45.8633L39.006 43.6582C39.086 43.1836 38.9278 42.7012 38.5841 42.3662L37.0597 40.8809L39.1661 40.5742C39.6427 40.5049 40.0558 40.2051 40.2687 39.7734L41.211 37.8652L42.1525 39.7734C42.3653 40.2051 42.7784 40.5049 43.255 40.5742L45.3614 40.8809L43.837 42.3662Z" fill="#BF202F"/>
<path d="M25.0254 0C16.1406 0 8.91211 7.22852 8.91211 16.1133C8.91211 21.3164 11.3623 25.9541 15.1621 28.9229C15.2803 29.0508 15.4209 29.1572 15.5781 29.2363C18.2344 31.1777 21.499 32.3242 25.0254 32.3242C28.5518 32.3242 31.8164 31.1777 34.4727 29.2363C34.6299 29.1572 34.7705 29.0508 34.8887 28.9229C38.6885 25.9541 41.1387 21.3164 41.1387 16.1133C41.1387 7.22852 33.9102 0 25.0254 0ZM25.0254 29.3945C22.333 29.3945 19.8271 28.5771 17.7383 27.1758C18.1123 23.4365 21.2383 20.5078 25.0254 20.5078C28.8125 20.5078 31.9385 23.4365 32.3125 27.1758C30.2236 28.5771 27.7179 29.3945 25.0254 29.3945ZM20.6309 13.1836C20.6309 10.7607 22.6025 8.78906 25.0254 8.78906C27.4482 8.78906 29.4199 10.7607 29.4199 13.1836C29.4199 15.6064 27.4482 17.5781 25.0254 17.5781C22.6025 17.5781 20.6309 15.6064 20.6309 13.1836ZM34.8487 24.9609C34.0499 22.2715 32.1944 20.0381 29.7716 18.7559C31.3478 17.4111 32.3497 15.4131 32.3497 13.1836C32.3497 9.14551 29.0646 5.85938 25.0255 5.85938C20.9874 5.85938 17.7013 9.14551 17.7013 13.1836C17.7013 15.4131 18.7032 17.4111 20.2804 18.7559C17.8565 20.0381 16.0011 22.2715 15.2022 24.9609C13.1134 22.6104 11.8419 19.5088 11.8419 16.1133C11.8419 8.84375 17.756 2.92969 25.0255 2.92969C32.295 2.92969 38.2091 8.84375 38.2091 16.1133C38.209 19.5088 36.9375 22.6104 34.8487 24.9609Z" fill="#BF202F"/>
</g>
<defs>
<clipPath id="clip0_132_936">
<rect width="50" height="50" fill="white"/>
</clipPath>
</defs>
</svg>
