<svg width="26" height="26" viewBox="0 0 26 26" fill="none" xmlns="http://www.w3.org/2000/svg">
<path d="M13.0007 0C8.22195 0 4.33398 3.88797 4.33398 8.66668C4.33398 10.1013 4.69265 11.5236 5.37449 12.7852L12.5267 25.7207C12.6219 25.8932 12.8034 26 13.0007 26C13.198 26 13.3794 25.8932 13.4746 25.7207L20.6295 12.781C21.3087 11.5236 21.6674 10.1012 21.6674 8.66663C21.6674 3.88796 17.7794 0 13.0007 0ZM13.0007 13C10.6113 13 8.66735 11.056 8.66735 8.66668C8.66735 6.27732 10.6113 4.33337 13.0007 4.33337C15.39 4.33337 17.334 6.27732 17.334 8.66668C17.334 11.056 15.39 13 13.0007 13Z" fill="#0C7283"/>
</svg>
