<svg width="30" height="30" viewBox="0 0 30 30" fill="none" xmlns="http://www.w3.org/2000/svg">
<path d="M22.4998 6.39819L18.8569 6.39795C18.6879 6.39795 18.5508 6.53496 18.5508 6.70408C18.5508 6.87319 18.6878 7.0102 18.8569 7.0102L22.4998 7.01045C22.6688 7.01045 22.8059 6.87344 22.8059 6.70432C22.8059 6.53525 22.6689 6.39819 22.4998 6.39819Z" fill="#0C7283"/>
<path d="M26.1426 4.56206L18.8569 4.56152C18.6879 4.56152 18.5508 4.69853 18.5508 4.86765C18.5508 5.03677 18.6878 5.17378 18.8569 5.17378L26.1426 5.17432C26.3117 5.17432 26.4488 5.03731 26.4488 4.86819C26.4488 4.69912 26.3118 4.56206 26.1426 4.56206Z" fill="#0C7283"/>
<path d="M26.1426 2.72515L18.8569 2.72461C18.6879 2.72461 18.5508 2.86162 18.5508 3.03074C18.5508 3.19985 18.6878 3.33686 18.8569 3.33686L26.1426 3.3374C26.3117 3.3374 26.4488 3.20039 26.4488 3.03128C26.4488 2.86226 26.3118 2.72515 26.1426 2.72515Z" fill="#0C7283"/>
<path d="M27.6114 5.6029C27.6114 4.07207 27.6114 2.54119 27.6114 1.01025C24.2033 1.01025 20.7951 1.01025 17.387 1.01025C17.387 2.54084 17.387 4.07148 17.387 5.60207C16.0327 5.60207 14.6784 5.60207 13.3242 5.60207C13.693 6.43761 13.8665 7.26021 13.8665 8.17349C13.8665 13.398 13.8665 18.6225 13.8665 23.847C13.8665 24.7603 13.693 25.5829 13.3242 26.4184C18.0662 26.4184 22.8082 26.4184 27.5502 26.4184C28.9027 26.4184 29.9991 25.3219 29.9991 23.9694C29.9991 18.6633 29.9991 13.3572 29.9991 8.05104C29.9992 6.72236 28.9397 5.63609 27.6114 5.6029ZM17.9992 1.62251H26.9992V7.92864H17.9992V1.62251ZM18.6421 21.0919C17.4952 21.0919 17.3563 20.953 17.3563 19.8061C17.3563 18.6593 17.4952 18.5204 18.6421 18.5204C19.7889 18.5204 19.9278 18.6593 19.9278 19.8061C19.9278 20.953 19.7889 21.0919 18.6421 21.0919ZM18.6421 17.296C17.4952 17.296 17.3563 17.1571 17.3563 16.0103C17.3563 14.8634 17.4952 14.7245 18.6421 14.7245C19.7889 14.7245 19.9278 14.8634 19.9278 16.0103C19.9278 17.1571 19.7889 17.296 18.6421 17.296ZM18.6421 13.5001C17.4952 13.5001 17.3563 13.3611 17.3563 12.2143C17.3563 11.0675 17.4952 10.9286 18.6421 10.9286C19.7889 10.9286 19.9278 11.0675 19.9278 12.2143C19.9278 13.3611 19.7889 13.5001 18.6421 13.5001ZM22.4992 21.0919C21.3524 21.0919 21.2135 20.953 21.2135 19.8061C21.2135 18.6593 21.3524 18.5204 22.4992 18.5204C23.646 18.5204 23.7849 18.6593 23.7849 19.8061C23.7849 20.953 23.646 21.0919 22.4992 21.0919ZM22.4992 17.296C21.3524 17.296 21.2135 17.1571 21.2135 16.0103C21.2135 14.8634 21.3524 14.7246 22.4992 14.7246C23.646 14.7246 23.7849 14.8635 23.7849 16.0103C23.7849 17.1571 23.646 17.296 22.4992 17.296ZM22.4992 13.5001C21.3524 13.5001 21.2135 13.3611 21.2135 12.2143C21.2135 11.0675 21.3524 10.9286 22.4992 10.9286C23.646 10.9286 23.7849 11.0675 23.7849 12.2143C23.7849 13.3611 23.646 13.5001 22.4992 13.5001ZM26.3564 21.0919C25.2095 21.0919 25.0706 20.953 25.0706 19.8061C25.0706 18.6593 25.2095 18.5204 26.3564 18.5204C27.5032 18.5204 27.6421 18.6593 27.6421 19.8061C27.6421 20.953 27.5031 21.0919 26.3564 21.0919ZM26.3564 17.296C25.2095 17.296 25.0706 17.1571 25.0706 16.0103C25.0706 14.8634 25.2095 14.7245 26.3564 14.7245C27.5032 14.7245 27.6421 14.8634 27.6421 16.0103C27.642 17.1571 27.5031 17.296 26.3564 17.296ZM26.3564 13.5001C25.2095 13.5001 25.0706 13.3611 25.0706 12.2143C25.0706 11.0675 25.2095 10.9286 26.3564 10.9286C27.5032 10.9286 27.6421 11.0675 27.6421 12.2143C27.6421 13.3611 27.5031 13.5001 26.3564 13.5001Z" fill="#0C7283"/>
<path d="M7.50026 3.03076C4.65992 3.03076 2.35742 5.33331 2.35742 8.1736C2.35742 13.3981 2.35742 18.6226 2.35742 23.8471C2.35742 26.6874 4.65997 28.9899 7.50026 28.9899C10.3406 28.9899 12.6431 26.6874 12.6431 23.8471C12.6431 18.6226 12.6431 13.3981 12.6431 8.1736C12.6431 5.33331 10.3406 3.03076 7.50026 3.03076Z" fill="#0C7283"/>
<path d="M1.61211 5.74951C0.644265 6.10142 0 7.02128 0 8.05108C0 13.3572 0 18.6633 0 23.9694C0 24.9992 0.644265 25.919 1.61211 26.271C1.28676 25.4807 1.13265 24.7016 1.13265 23.847C1.13265 18.6225 1.13265 13.3979 1.13265 8.17348C1.13265 7.31883 1.28676 6.53981 1.61211 5.74951Z" fill="#0C7283"/>
</svg>
