<svg width="26" height="26" viewBox="0 0 26 26" fill="none" xmlns="http://www.w3.org/2000/svg">
<g clip-path="url(#clip0_139_4025)">
<path d="M15.1729 15.9298C14.526 16.3611 13.7747 16.589 13 16.589C12.2254 16.589 11.474 16.3611 10.8272 15.9298L0.173113 8.82689C0.114004 8.78749 0.056418 8.7464 0 8.70415V20.3431C0 21.6775 1.08291 22.7366 2.39347 22.7366H23.6065C24.9409 22.7366 25.9999 21.6536 25.9999 20.3431V8.7041C25.9434 8.74645 25.8857 8.78764 25.8265 8.82709L15.1729 15.9298Z" fill="#0C7283"/>
<path d="M1.01816 7.55936L11.6722 14.6623C12.0755 14.9312 12.5377 15.0656 12.9999 15.0656C13.4622 15.0656 13.9245 14.9312 14.3278 14.6623L24.9818 7.55936C25.6194 7.13457 26 6.42364 26 5.65633C26 4.33698 24.9266 3.26367 23.6073 3.26367H2.39266C1.07336 3.26372 0 4.33704 0 5.6576C0 6.42364 0.380656 7.13457 1.01816 7.55936Z" fill="#0C7283"/>
</g>
<defs>
<clipPath id="clip0_139_4025">
<rect width="26" height="26" fill="white"/>
</clipPath>
</defs>
</svg>
