<svg width="60" height="60" viewBox="0 0 60 60" fill="none" xmlns="http://www.w3.org/2000/svg">
<path d="M0 3.65967V50.7719H38.0877V56.3404L44.9102 54.1171L51.7328 56.3404V50.7719H60V3.65967H0ZM48.217 51.497L44.9101 50.4195L41.6032 51.497V47.4747C42.6246 47.8915 43.7406 48.1232 44.9101 48.1232C46.0796 48.1232 47.1956 47.8915 48.217 47.4747V51.497ZM44.9101 44.6077C42.0061 44.6077 39.6436 42.2451 39.6436 39.3412C39.6436 36.4372 42.0062 34.0746 44.9101 34.0746C47.814 34.0746 50.1766 36.4372 50.1766 39.3412C50.1766 42.2451 47.8141 44.6077 44.9101 44.6077ZM56.4844 47.2562H51.7327V44.8628C52.9569 43.3531 53.6924 41.4317 53.6924 39.341C53.6924 34.4985 49.7527 30.5589 44.9102 30.5589C40.0678 30.5589 36.1281 34.4986 36.1281 39.341C36.1281 41.4317 36.8636 43.3531 38.0878 44.8628V47.2562H3.51562V7.17529H56.4844V47.2562Z" fill="#0C7283"/>
<path d="M49.4531 13.2822H10.5469V16.7979H49.4531V13.2822Z" fill="#0C7283"/>
<path d="M49.4531 21.4678H10.5469V24.9834H49.4531V21.4678Z" fill="#0C7283"/>
<path d="M30 29.6533H10.5469V33.169H30V29.6533Z" fill="#0C7283"/>
</svg>
