<svg width="60" height="60" viewBox="0 0 60 60" fill="none" xmlns="http://www.w3.org/2000/svg">
<g clip-path="url(#clip0_127_324)">
<path d="M57.9992 27.7578L54.5327 31.2244C54.3129 31.4443 54.1894 31.7423 54.1894 32.0531C54.1894 34.5354 53.2228 36.8692 51.4674 38.6244L32.9513 57.1406C32.2641 57.8276 31.1462 57.8277 30.4591 57.1406C30.1263 56.8078 29.9429 56.3653 29.9429 55.8945C29.9429 55.4848 30.0821 55.0964 30.3376 54.7833L41.0598 44.0611C41.5174 43.6035 41.5174 42.8614 41.0598 42.4037C41.0588 42.4025 41.0575 42.4017 41.0563 42.4005C41.0552 42.3994 41.0543 42.3982 41.0531 42.397C40.5954 41.9396 39.8535 41.9396 39.3958 42.397L26.4668 55.3395C26.134 55.6724 25.6913 55.8557 25.2207 55.8557C24.7501 55.8557 24.3075 55.6723 23.9747 55.3395C23.331 54.6958 23.2904 53.6741 23.8527 52.9826L36.9171 39.9182C37.3748 39.4606 37.3748 38.7185 36.9171 38.2608C36.4595 37.8033 35.7175 37.8033 35.2598 38.2608L20.0514 53.4692C19.7186 53.8021 19.276 53.9854 18.8053 53.9854C18.3346 53.9854 17.8921 53.802 17.5592 53.4692C17.2264 53.1364 17.0431 52.6939 17.0431 52.2231C17.0431 51.7524 17.2264 51.3098 17.5592 50.977L32.7781 35.7715C33.2357 35.3139 33.2357 34.5719 32.7781 34.1141C32.3204 33.6568 31.5785 33.6568 31.1208 34.1141L17.5358 47.6858C16.8443 48.2477 15.8228 48.2073 15.1792 47.5637C14.8463 47.2309 14.663 46.7882 14.663 46.3175C14.663 45.8468 14.8464 45.4043 15.1792 45.0715L19.6256 40.6249C20.0833 40.1673 20.0833 39.4253 19.6255 38.9676C19.1679 38.5101 18.4259 38.5101 17.9683 38.9676L15.6937 41.2423L11.1757 36.7241C8.33129 33.8798 6.29072 30.3193 5.27448 26.4275C5.22186 26.2259 5.11651 26.0422 4.96932 25.8949L2.00051 22.9261C1.54278 22.4687 0.800869 22.4686 0.343255 22.9261C-0.11436 23.3837 -0.114477 24.1257 0.343255 24.5835L3.09 27.3302C4.23749 31.5033 6.45572 35.3187 9.51828 38.3815L14.0364 42.8996L13.522 43.4141C12.7464 44.1895 12.3193 45.2206 12.3193 46.3174C12.3193 47.4141 12.7464 48.4453 13.522 49.2208C14.0102 49.709 14.592 50.0474 15.21 50.2379C14.8771 50.8387 14.6992 51.517 14.6992 52.223C14.6992 53.3198 15.1263 54.3509 15.9018 55.1263C16.6773 55.9019 17.7085 56.329 18.8052 56.329C19.7386 56.329 20.6238 56.0187 21.3451 55.4485C21.542 56.0144 21.8659 56.5453 22.3172 56.9967C23.0927 57.7723 24.1239 58.1994 25.2206 58.1994C26.1848 58.1994 27.0982 57.8691 27.8318 57.2623C28.033 57.8335 28.3609 58.357 28.8017 58.7979C29.6022 59.5983 30.6536 59.9985 31.705 59.9985C32.7565 59.9985 33.8079 59.5983 34.6084 58.7979L36.1077 57.2986L37.1562 58.3471C37.9567 59.1475 39.0081 59.5477 40.0595 59.5477C41.1109 59.5477 42.1624 59.1475 42.9629 58.3471C43.6159 57.6941 44.0205 56.8597 44.1326 55.9578C44.3628 55.997 44.5956 56.0179 44.8287 56.0179C45.8802 56.0179 46.9316 55.6177 47.7321 54.8173C48.5076 54.0418 48.9348 53.0106 48.9348 51.9139C48.9348 51.8983 48.9338 51.8829 48.9336 51.8674C48.9485 51.8675 48.9632 51.8684 48.9781 51.8684C50.0296 51.8684 51.081 51.4682 51.8815 50.6678C52.6571 49.8923 53.0841 48.8612 53.0841 47.7644C53.0841 47.5655 53.0697 47.369 53.042 47.1756C53.9738 47.0777 54.8373 46.668 55.5089 45.9963C56.2845 45.2209 56.7116 44.1897 56.7116 43.093C56.7116 41.9962 56.2845 40.9651 55.5089 40.1896L54.2693 38.95C55.641 37.0939 56.4255 34.8834 56.5226 32.5489L59.6563 29.4153C60.1139 28.9577 60.1139 28.2157 59.6562 27.758C59.1988 27.3003 58.4568 27.3003 57.9992 27.7578ZM41.3059 56.6897C40.6187 57.3765 39.5008 57.3768 38.8137 56.6897L37.7764 55.6524L40.2686 53.1602L40.8621 53.7536L41.3061 54.1976C41.6388 54.5303 41.8221 54.9728 41.8221 55.4434C41.822 55.9144 41.6386 56.357 41.3059 56.6897ZM46.5911 51.9139C46.5911 52.3846 46.4079 52.8272 46.0749 53.16C45.3879 53.847 44.2699 53.8472 43.5827 53.16L42.9635 52.5408C42.9634 52.5406 42.9633 52.5405 42.963 52.5404L41.9257 51.503L44.4178 49.0108L46.0748 50.6678C46.4079 51.0006 46.5911 51.4431 46.5911 51.9139ZM50.2244 49.0105C49.5372 49.6974 48.4191 49.6975 47.7322 49.0105L46.0752 47.3534L48.5674 44.8612L50.2244 46.5182C50.5572 46.8511 50.7405 47.2936 50.7405 47.7643C50.7406 48.2352 50.5572 48.6777 50.2244 49.0105ZM53.8519 44.3389C53.5191 44.6719 53.0765 44.8551 52.6059 44.8551C52.1353 44.8551 51.6926 44.6719 51.3597 44.3389L50.2248 43.204L52.717 40.7118L53.8519 41.8467C54.1847 42.1795 54.3681 42.622 54.3681 43.0929C54.368 43.5636 54.1847 44.0061 53.8519 44.3389Z" fill="#0C7283"/>
<path d="M13.9052 15.5634C14.125 15.7831 14.4231 15.9066 14.7339 15.9066H20.7821C25.1546 15.9066 29.4318 17.4247 32.8258 20.1812L42.3481 27.9148C40.0197 29.5408 36.8931 29.7631 34.3419 28.3814L27.8625 24.8728C27.5877 24.724 27.2645 24.6911 26.9651 24.7818C22.8727 26.0198 18.5429 26.0312 14.4438 24.8139L14.3289 24.7799C13.7083 24.5959 13.0562 24.9497 12.8722 25.5702C12.6883 26.1907 13.0422 26.8428 13.6627 27.0268L13.7773 27.0608C18.1587 28.3617 22.7783 28.3955 27.1701 27.1631L28.8586 28.0775L25.4234 31.5127C24.9658 31.9704 24.9658 32.7124 25.4235 33.1701C25.6524 33.3989 25.9523 33.5134 26.2522 33.5134C26.552 33.5134 26.852 33.3989 27.0808 33.1701L31.0089 29.2419L33.2261 30.4425C34.6965 31.2388 36.3071 31.6462 37.9515 31.6462C38.434 31.6462 38.9196 31.6111 39.4052 31.5405C41.5456 31.2289 43.4853 30.2558 45.0148 28.7263C45.2494 28.4915 45.3735 28.1685 45.3564 27.8371C45.3392 27.5058 45.1825 27.1971 44.9248 26.9879L35.467 19.3069C38.287 17.5608 41.5086 16.628 44.8431 16.6054C45.1511 16.6033 45.4461 16.48 45.6638 16.2622L59.6568 2.26936C60.1145 1.81175 60.1145 1.06972 59.6568 0.611989C59.1991 0.154608 58.4572 0.154608 57.9995 0.611989L44.3409 14.2707C40.469 14.3881 36.7474 15.5928 33.5344 17.7666C29.8571 15.0496 25.3663 13.5629 20.7822 13.5629H15.2194L2.00058 0.3441C1.54297 -0.113398 0.800943 -0.113398 0.343211 0.3441C-0.114404 0.801714 -0.114404 1.54374 0.343211 2.00147L13.9052 15.5634Z" fill="#0C7283"/>
<path d="M21.6937 35.2413C21.4758 35.4593 21.3516 35.7616 21.3516 36.0698C21.3516 36.3792 21.4758 36.6804 21.6937 36.8982C21.9129 37.1162 22.2152 37.2417 22.5234 37.2417C22.8316 37.2417 23.1328 37.1163 23.352 36.8982C23.5699 36.6804 23.6953 36.3791 23.6953 36.0698C23.6953 35.7616 23.5699 35.4593 23.352 35.2413C23.134 35.0233 22.8316 34.8979 22.5234 34.8979C22.2142 34.8979 21.9129 35.0233 21.6937 35.2413Z" fill="#0C7283"/>
</g>
<defs>
<clipPath id="clip0_127_324">
<rect width="60" height="60" fill="white"/>
</clipPath>
</defs>
</svg>
