<svg width="15" height="15" viewBox="0 0 15 15" fill="none" xmlns="http://www.w3.org/2000/svg">
<path d="M6.50343 14.5244C6.50309 14.5244 6.50266 14.5244 6.50223 14.5244C6.06218 14.5241 5.64839 14.3524 5.33734 14.0408L0.956195 9.65343C0.315383 9.01142 0.315383 7.96678 0.956195 7.32485L6.86203 1.40768C7.47066 0.797855 8.28047 0.461914 9.14221 0.461914H12.8891C13.7978 0.461914 14.5371 1.20109 14.5371 2.10986V5.8453C14.5371 6.70644 14.2015 7.51591 13.5923 8.12445L7.66807 14.0425C7.35685 14.3533 6.94323 14.5244 6.50343 14.5244ZM9.14221 1.56055C8.57435 1.56055 8.04075 1.7819 7.63966 2.18376L1.73373 8.10093C1.5201 8.31499 1.5201 8.66312 1.73373 8.87718L6.11488 13.2646C6.21847 13.3684 6.35632 13.4257 6.50309 13.4258H6.50352C6.65012 13.4258 6.78796 13.3687 6.89164 13.2652L12.8158 7.34725C13.2174 6.94625 13.4385 6.41273 13.4385 5.8453V2.10986C13.4385 1.80697 13.192 1.56055 12.8891 1.56055H9.14221ZM10.5545 6.03747C9.64578 6.03747 8.90652 5.2983 8.90652 4.38953C8.90652 3.48075 9.64578 2.74158 10.5545 2.74158C11.4632 2.74158 12.2024 3.48075 12.2024 4.38953C12.2024 5.2983 11.4632 6.03747 10.5545 6.03747ZM10.5545 3.84021C10.2516 3.84021 10.0052 4.08663 10.0052 4.38953C10.0052 4.69242 10.2516 4.93884 10.5545 4.93884C10.8575 4.93884 11.1038 4.69242 11.1038 4.38953C11.1038 4.08663 10.8575 3.84021 10.5545 3.84021Z" fill="#0C7283"/>
</svg>
