<svg width="15" height="15" viewBox="0 0 15 15" fill="none" xmlns="http://www.w3.org/2000/svg">
<g clip-path="url(#clip0_207_108)">
<path d="M12.104 1.15475H11.5445V0.588606C11.5445 0.265137 11.2823 0.00292969 10.9588 0.00292969C10.6353 0.00292969 10.3731 0.265137 10.3731 0.588606V1.15475H4.62685V0.588606C4.62685 0.265137 4.36464 0.00292969 4.04117 0.00292969C3.7177 0.00292969 3.45549 0.265137 3.45549 0.588606V1.15475H2.89602C1.29915 1.15475 0 2.4539 0 4.05075V12.1002C0 13.6971 1.29915 14.9963 2.89602 14.9963H12.104C13.7009 14.9963 15 13.6971 15 12.1002V4.05075C15 2.4539 13.7009 1.15475 12.104 1.15475ZM2.89602 2.3261H3.45549V3.46817C3.45549 3.79164 3.7177 4.05385 4.04117 4.05385C4.36464 4.05385 4.62685 3.79164 4.62685 3.46817V2.3261H10.3732V3.46817C10.3732 3.79164 10.6354 4.05385 10.9588 4.05385C11.2823 4.05385 11.5445 3.79164 11.5445 3.46817V2.3261H12.104C13.055 2.3261 13.8286 3.09978 13.8286 4.05075V4.61024H1.17135V4.05075C1.17135 3.09978 1.94503 2.3261 2.89602 2.3261ZM12.104 13.8249H2.89602C1.94503 13.8249 1.17135 13.0512 1.17135 12.1002V5.7816H13.8286V12.1002C13.8286 13.0512 13.055 13.8249 12.104 13.8249ZM5.20277 8.08527C5.20277 8.40874 4.94056 8.67095 4.61709 8.67095H3.46527C3.1418 8.67095 2.8796 8.40874 2.8796 8.08527C2.8796 7.7618 3.1418 7.49959 3.46527 7.49959H4.61709C4.94053 7.49959 5.20277 7.7618 5.20277 8.08527ZM12.1204 8.08527C12.1204 8.40874 11.8582 8.67095 11.5348 8.67095H10.3829C10.0595 8.67095 9.79726 8.40874 9.79726 8.08527C9.79726 7.7618 10.0595 7.49959 10.3829 7.49959H11.5348C11.8582 7.49959 12.1204 7.7618 12.1204 8.08527ZM8.65826 8.08527C8.65826 8.40874 8.39606 8.67095 8.07259 8.67095H6.92077C6.5973 8.67095 6.33509 8.40874 6.33509 8.08527C6.33509 7.7618 6.5973 7.49959 6.92077 7.49959H8.07259C8.39603 7.49959 8.65826 7.7618 8.65826 8.08527ZM5.20277 11.5408C5.20277 11.8642 4.94056 12.1264 4.61709 12.1264H3.46527C3.1418 12.1264 2.8796 11.8642 2.8796 11.5408C2.8796 11.2173 3.1418 10.9551 3.46527 10.9551H4.61709C4.94053 10.9551 5.20277 11.2173 5.20277 11.5408ZM12.1204 11.5408C12.1204 11.8642 11.8582 12.1264 11.5348 12.1264H10.3829C10.0595 12.1264 9.79726 11.8642 9.79726 11.5408C9.79726 11.2173 10.0595 10.9551 10.3829 10.9551H11.5348C11.8582 10.9551 12.1204 11.2173 12.1204 11.5408ZM8.65826 11.5408C8.65826 11.8642 8.39606 12.1264 8.07259 12.1264H6.92077C6.5973 12.1264 6.33509 11.8642 6.33509 11.5408C6.33509 11.2173 6.5973 10.9551 6.92077 10.9551H8.07259C8.39603 10.9551 8.65826 11.2173 8.65826 11.5408Z" fill="#BF202F"/>
</g>
<defs>
<clipPath id="clip0_207_108">
<rect width="15" height="15" fill="white"/>
</clipPath>
</defs>
</svg>
