<svg width="50" height="50" viewBox="0 0 50 50" fill="none" xmlns="http://www.w3.org/2000/svg">
<path d="M48.7103 15.7351C46.9969 14.0216 44.2089 14.0217 42.4949 15.7354C41.9678 16.2631 38.6021 19.6315 38.0879 20.1462V8.5377C38.0879 7.36387 37.6308 6.26035 36.8007 5.43037L32.6576 1.28711C31.8276 0.457031 30.724 0 29.5502 0H4.39648C1.97334 0 0.00195312 1.97139 0.00195312 4.39453V45.6055C0.00195312 48.0286 1.97334 50 4.39648 50H33.6934C36.1165 50 38.0879 48.0286 38.0879 45.6055V32.5812L48.7102 21.9499C50.4276 20.2325 50.428 17.4526 48.7103 15.7351ZM29.2989 2.92969C29.5757 2.92969 30.109 2.88174 30.586 3.35869L34.7292 7.50195C35.194 7.96689 35.1583 8.47637 35.1583 8.78906H29.2989V2.92969ZM35.1582 45.6055C35.1582 46.4132 34.5012 47.0703 33.6934 47.0703H4.39648C3.58877 47.0703 2.93164 46.4132 2.93164 45.6055V4.39453C2.93164 3.58682 3.58877 2.92969 4.39648 2.92969H26.3691V10.2539C26.3691 11.0629 27.025 11.7188 27.834 11.7188H35.1582V23.0784C35.1582 23.0784 30.8365 27.4038 30.8363 27.4039L28.7657 29.4746C28.605 29.6354 28.4837 29.8314 28.4118 30.0472L26.3401 36.262C26.1646 36.7884 26.3017 37.3688 26.694 37.761C27.0869 38.1539 27.6675 38.2902 28.1931 38.1149L34.4079 36.0434C34.6236 35.9715 34.8197 35.8503 34.9805 35.6895L35.1582 35.5117V45.6055ZM31.873 30.5104L33.9446 32.582L33.1533 33.3733L30.046 34.4091L31.0817 31.3017L31.873 30.5104ZM36.0158 30.51L33.9442 28.4384C35.0474 27.3344 39.9467 22.4309 40.9857 21.3909L43.0573 23.4625L36.0158 30.51ZM46.6382 19.8787L45.1281 21.39L43.0565 19.3185L44.5671 17.8066C45.1386 17.2354 46.0677 17.2355 46.6388 17.8066C47.2098 18.3779 47.2128 19.304 46.6382 19.8787Z" fill="#BF202F"/>
<path d="M27.834 14.6484H7.32617C6.51719 14.6484 5.86133 15.3043 5.86133 16.1133C5.86133 16.9223 6.51719 17.5781 7.32617 17.5781H27.834C28.643 17.5781 29.2988 16.9223 29.2988 16.1133C29.2988 15.3043 28.643 14.6484 27.834 14.6484Z" fill="#BF202F"/>
<path d="M21.9746 20.5078H7.32617C6.51719 20.5078 5.86133 21.1637 5.86133 21.9727C5.86133 22.7816 6.51719 23.4375 7.32617 23.4375H21.9746C22.7836 23.4375 23.4395 22.7816 23.4395 21.9727C23.4395 21.1637 22.7836 20.5078 21.9746 20.5078Z" fill="#BF202F"/>
<path d="M21.9746 26.3672H7.32617C6.51719 26.3672 5.86133 27.023 5.86133 27.832C5.86133 28.641 6.51719 29.2969 7.32617 29.2969H21.9746C22.7836 29.2969 23.4395 28.641 23.4395 27.832C23.4395 27.023 22.7836 26.3672 21.9746 26.3672Z" fill="#BF202F"/>
<path d="M21.9746 32.2266H7.32617C6.51719 32.2266 5.86133 32.8824 5.86133 33.6914C5.86133 34.5004 6.51719 35.1562 7.32617 35.1562H21.9746C22.7836 35.1562 23.4395 34.5004 23.4395 33.6914C23.4395 32.8824 22.7836 32.2266 21.9746 32.2266Z" fill="#BF202F"/>
<path d="M27.834 41.2109H19.0449C18.2359 41.2109 17.5801 41.8668 17.5801 42.6758C17.5801 43.4848 18.2359 44.1406 19.0449 44.1406H27.834C28.643 44.1406 29.2988 43.4848 29.2988 42.6758C29.2988 41.8668 28.643 41.2109 27.834 41.2109Z" fill="#BF202F"/>
</svg>
